<svg viewBox="0 0 24 24" width="24" height="24" fill="none" stroke="url(#grad-whatsapp)" stroke-width="1.5" stroke-linecap="round" stroke-linejoin="round" xmlns="http://www.w3.org/2000/svg">
  <defs>
    <linearGradient id="grad-whatsapp" x1="0%" y1="0%" x2="100%" y2="100%">
      <stop offset="0%" style="stop-color:#3b82f6;stop-opacity:1"/>
      <stop offset="100%" style="stop-color:#8b5cf6;stop-opacity:1"/>
    </linearGradient>
  </defs>
  <path d="M3 21l1.65-3.8a9 9 0 1 1 3.4 2.9L3 21"/>
  <path d="M9 10a.5.5 0 0 0 1 0V9a.5.5 0 0 0-1 0v1a5 5 0 0 0 5 5h1a.5.5 0 0 0 0-1h-1a.5.5 0 0 0 0 1"/>
</svg>
