<svg viewBox="0 0 24 24" width="24" height="24" fill="none" stroke="currentColor" stroke-width="1" stroke-linecap="round" stroke-linejoin="round" xmlns="http://www.w3.org/2000/svg">
  <style>
    @keyframes iconPulse { 0%, 100% { opacity: 1; } 50% { opacity: 0.6; } }
    path, circle, rect, ellipse, polygon { animation: iconPulse 2s ease-in-out infinite; }
  </style>
  <path d="M21 11.5a8.38 8.38 0 0 1-.9 3.8 8.5 8.5 0 0 1-7.6 4.7 8.38 8.38 0 0 1-3.8-.9L3 21l1.9-5.7a8.38 8.38 0 0 1-.9-3.8 8.5 8.5 0 0 1 4.7-7.6 8.38 8.38 0 0 1 3.8-.9h.5a8.48 8.48 0 0 1 8 8z"/>
  <path d="M9 12h6"/>
</svg>
