<svg viewBox="0 0 24 24" width="24" height="24" fill="none" stroke="url(#grad-arctic-anim)" stroke-width="1.5" stroke-linecap="round" stroke-linejoin="round" xmlns="http://www.w3.org/2000/svg">
  <defs>
    <linearGradient id="grad-arctic-anim" x1="0%" y1="0%" x2="100%" y2="100%">
      <stop offset="0%" style="stop-color:#3b82f6;stop-opacity:1">
        <animate attributeName="stop-color" values="#3b82f6;#8b5cf6;#3b82f6" dur="3s" repeatCount="indefinite"/>
      </stop>
      <stop offset="100%" style="stop-color:#8b5cf6;stop-opacity:1">
        <animate attributeName="stop-color" values="#8b5cf6;#3b82f6;#8b5cf6" dur="3s" repeatCount="indefinite"/>
      </stop>
    </linearGradient>
  </defs>
  <g>
    <animateTransform attributeName="transform" type="rotate" from="0 12 10" to="360 12 10" dur="6s" repeatCount="indefinite"/>
    <path d="M12 2l2 4 4 2-4 2-2 4-2-4-4-2 4-2 2-4z">
      <animate attributeName="opacity" values="1;0.6;1" dur="2s" repeatCount="indefinite"/>
    </path>
  </g>
  <path d="M6 14l1 2 2 1-2 1-1 2-1-2-2-1 2-1 1-2z">
    <animate attributeName="opacity" values="0.5;1;0.5" dur="1.5s" repeatCount="indefinite"/>
  </path>
  <path d="M18 14l1 2 2 1-2 1-1 2-1-2-2-1 2-1 1-2z">
    <animate attributeName="opacity" values="0.5;1;0.5" dur="1.5s" begin="0.75s" repeatCount="indefinite"/>
  </path>
  <circle cx="12" cy="12" r="1.5">
    <animate attributeName="r" values="1.5;2.5;1.5" dur="2s" repeatCount="indefinite"/>
  </circle>
</svg>
