<svg viewBox="0 0 24 24" width="24" height="24" fill="none" stroke="url(#grad-fireflies-ai)" stroke-width="1.5" stroke-linecap="round" stroke-linejoin="round" xmlns="http://www.w3.org/2000/svg">
  <defs>
    <linearGradient id="grad-fireflies-ai" x1="0%" y1="0%" x2="100%" y2="100%">
      <stop offset="0%" style="stop-color:#3b82f6;stop-opacity:1"/>
      <stop offset="100%" style="stop-color:#8b5cf6;stop-opacity:1"/>
    </linearGradient>
  </defs>
  <path d="M12 2l1 3 3 1-3 1-1 3-1-3-3-1 3-1 1-3z">
    <animateTransform attributeName="transform" type="rotate" from="0 12 5" to="360 12 5" dur="6s" repeatCount="indefinite"/>
    <animate attributeName="opacity" values="0.6;1;0.6" dur="2s" repeatCount="indefinite"/>
  </path>
  <path d="M6 12l0.5 1.5 1.5 0.5-1.5 0.5L6 16l-0.5-1.5L4 14l1.5-0.5L6 12z">
    <animate attributeName="opacity" values="0.5;1;0.5" dur="1.5s" repeatCount="indefinite"/>
  </path>
  <path d="M18 12l0.5 1.5 1.5 0.5-1.5 0.5L18 16l-0.5-1.5L16 14l1.5-0.5L18 12z">
    <animate attributeName="opacity" values="0.5;1;0.5" dur="1.5s" begin="0.5s" repeatCount="indefinite"/>
  </path>
  <circle cx="12" cy="19" r="3">
    <animate attributeName="r" values="3;4;3" dur="2s" repeatCount="indefinite"/>
  </circle>
</svg>
