<svg viewBox="0 0 24 24" width="24" height="24" fill="none" stroke="url(#grad-leonardo-anim)" stroke-width="1.5" stroke-linecap="round" stroke-linejoin="round" xmlns="http://www.w3.org/2000/svg">
  <defs>
    <linearGradient id="grad-leonardo-anim" x1="0%" y1="0%" x2="100%" y2="100%">
      <stop offset="0%" style="stop-color:#3b82f6;stop-opacity:1">
        <animate attributeName="stop-color" values="#3b82f6;#8b5cf6;#3b82f6" dur="3s" repeatCount="indefinite"/>
      </stop>
      <stop offset="100%" style="stop-color:#8b5cf6;stop-opacity:1">
        <animate attributeName="stop-color" values="#8b5cf6;#3b82f6;#8b5cf6" dur="3s" repeatCount="indefinite"/>
      </stop>
    </linearGradient>
  </defs>
  <g>
    <animateTransform attributeName="transform" type="rotate" from="0 12 12" to="360 12 12" dur="8s" repeatCount="indefinite"/>
    <path d="M21 16V8a2 2 0 0 0-1-1.73l-7-4a2 2 0 0 0-2 0l-7 4A2 2 0 0 0 3 8v8a2 2 0 0 0 1 1.73l7 4a2 2 0 0 0 2 0l7-4A2 2 0 0 0 21 16z"/>
    <path d="M7.5 4.21l4.5 2.6 4.5-2.6"/>
    <path d="M7.5 19.79V14.6L3 12"/>
    <path d="M21 12l-4.5 2.6v5.19"/>
    <path d="M12 22v-6"/>
  </g>
</svg>
