<svg viewBox="0 0 24 24" width="24" height="24" fill="none" xmlns="http://www.w3.org/2000/svg">
  <defs>
    <linearGradient id="python-gradient" x1="0%" y1="0%" x2="100%" y2="100%">
      <stop offset="0%" style="stop-color:#3776ab;stop-opacity:1" />
      <stop offset="50%" style="stop-color:#ffd43b;stop-opacity:1" />
      <stop offset="100%" style="stop-color:#ffde57;stop-opacity:1" />
    </linearGradient>
  </defs>
  <path d="M9 3h6c2 0 3 1 3 3v4h-6v1h7c2 0 3 1 3 3v4c0 2-1 3-3 3h-6c-2 0-3-1-3-3v-4h6v-1H6c-2 0-3-1-3-3V6c0-2 1-3 3-3h3z" stroke="url(#python-gradient)" stroke-width="1.5" fill="url(#python-gradient)" opacity="0.2"/>
  <circle cx="8" cy="6" r="1" fill="url(#python-gradient)"/>
  <circle cx="16" cy="18" r="1" fill="url(#python-gradient)"/>
</svg>
