<svg viewBox="0 0 24 24" width="24" height="24" fill="none" xmlns="http://www.w3.org/2000/svg">
  <defs>
    <linearGradient id="car-gradient" x1="0%" y1="0%" x2="100%" y2="100%">
      <stop offset="0%" style="stop-color:#4e54c8;stop-opacity:1" />
      <stop offset="100%" style="stop-color:#8f94fb;stop-opacity:1" />
    </linearGradient>
  </defs>
  <path d="M5 11a2 2 0 0 0-2 2v4a1 1 0 0 0 1 1h1a2 2 0 1 0 4 0h6a2 2 0 1 0 4 0h1a1 1 0 0 0 1-1v-4a2 2 0 0 0-2-2l-1.5-4.5A2 2 0 0 0 15.6 5H8.4a2 2 0 0 0-1.9 1.5L5 11z" stroke="url(#car-gradient)" stroke-width="1.5" stroke-linecap="round" stroke-linejoin="round" fill="url(#car-gradient)" opacity="0.2"/>
  <circle cx="7" cy="16" r="1.5" fill="url(#car-gradient)"/>
  <circle cx="17" cy="16" r="1.5" fill="url(#car-gradient)"/>
</svg>
