<svg viewBox="0 0 24 24" width="24" height="24" fill="none" xmlns="http://www.w3.org/2000/svg">
  <defs>
    <linearGradient id="mrna-gradient" x1="0%" y1="0%" x2="100%" y2="100%">
      <stop offset="0%" style="stop-color:#eb3349;stop-opacity:1" />
      <stop offset="100%" style="stop-color:#f45c43;stop-opacity:1" />
    </linearGradient>
  </defs>
  <path d="M3 12c0-2 2-4 4-4s4 2 4 4-2 4-4 4-4-2-4-4z" stroke="url(#mrna-gradient)" stroke-width="1.5" stroke-linecap="round" stroke-linejoin="round" fill="url(#mrna-gradient)" opacity="0.1"/>
  <path d="M13 12c0-2 2-4 4-4s4 2 4 4-2 4-4 4-4-2-4-4z" stroke="url(#mrna-gradient)" stroke-width="1.5" stroke-linecap="round" stroke-linejoin="round" fill="url(#mrna-gradient)" opacity="0.1"/>
  <path d="M7 8l10 8" stroke="url(#mrna-gradient)" stroke-width="1.5" stroke-linecap="round" stroke-linejoin="round" fill="url(#mrna-gradient)" opacity="0.1"/>
  <path d="M7 16l10-8" stroke="url(#mrna-gradient)" stroke-width="1.5" stroke-linecap="round" stroke-linejoin="round" fill="url(#mrna-gradient)" opacity="0.1"/>
  <circle cx="7" cy="12" r="2" stroke="url(#mrna-gradient)" stroke-width="1.5" stroke-linecap="round" stroke-linejoin="round" fill="url(#mrna-gradient)" opacity="0.1"/>
  <circle cx="17" cy="12" r="2" stroke="url(#mrna-gradient)" stroke-width="1.5" stroke-linecap="round" stroke-linejoin="round" fill="url(#mrna-gradient)" opacity="0.1"/>
</svg>
