<svg viewBox="0 0 24 24" width="24" height="24" fill="none" xmlns="http://www.w3.org/2000/svg">
  <defs>
    <linearGradient id="5g-gradient" x1="0%" y1="0%" x2="100%" y2="100%">
      <stop offset="0%" style="stop-color:#fc466b;stop-opacity:1" />
      <stop offset="100%" style="stop-color:#3f5efb;stop-opacity:1" />
    </linearGradient>
  </defs>
  <path d="M2 8h5a2 2 0 0 1 2 2v2a2 2 0 0 1-2 2H4v2h5" stroke="url(#5g-gradient)" stroke-width="1.5" stroke-linecap="round" stroke-linejoin="round"/>
  <path d="M22 12v4a2 2 0 0 1-2 2h-3a2 2 0 0 1-2-2v-4a2 2 0 0 1 2-2h3a2 2 0 0 0 2-2V8a2 2 0 0 0-2-2h-5" stroke="url(#5g-gradient)" stroke-width="1.5" stroke-linecap="round" stroke-linejoin="round"/>
  <line x1="15" y1="14" x2="18" y2="14" stroke="url(#5g-gradient)" stroke-width="1.5" stroke-linecap="round" stroke-linejoin="round"/>
</svg>
