<svg viewBox="0 0 24 24" width="24" height="24" fill="none" xmlns="http://www.w3.org/2000/svg">
  <defs>
    <linearGradient id="luggage-gradient" x1="0%" y1="0%" x2="100%" y2="100%">
      <stop offset="0%" style="stop-color:#ffd89b;stop-opacity:1" />
      <stop offset="100%" style="stop-color:#19547b;stop-opacity:1" />
    </linearGradient>
  </defs>
  <path d="M6 20h0a2 2 0 0 1-2-2V8a2 2 0 0 1 2-2h12a2 2 0 0 1 2 2v10a2 2 0 0 1-2 2h0"/>
  <path d="M8 18V4a2 2 0 0 1 2-2h4a2 2 0 0 1 2 2v14"/>
  <path d="M10 20v2"/>
  <path d="M14 20v2"/>
</svg>
