<svg viewBox="0 0 24 24" width="24" height="24" fill="none" xmlns="http://www.w3.org/2000/svg">
  <defs>
    <linearGradient id="3d-cube-gradient" x1="0%" y1="0%" x2="100%" y2="100%">
      <stop offset="0%" style="stop-color:#fa71cd;stop-opacity:1" />
      <stop offset="50%" style="stop-color:#c471f5;stop-opacity:1" />
      <stop offset="100%" style="stop-color:#12c2e9;stop-opacity:1" />
    </linearGradient>
  </defs>
  <path d="M21 16V8a2 2 0 0 0-1-1.73l-7-4a2 2 0 0 0-2 0l-7 4A2 2 0 0 0 3 8v8a2 2 0 0 0 1 1.73l7 4a2 2 0 0 0 2 0l7-4A2 2 0 0 0 21 16z" stroke="url(#3d-cube-gradient)" stroke-width="1.5" stroke-linecap="round" stroke-linejoin="round" fill="url(#3d-cube-gradient)" opacity="0.2"/>
  <polyline points="3.27 6.96 12 12.01 20.73 6.96" stroke="url(#3d-cube-gradient)" stroke-width="1.5" stroke-linecap="round" stroke-linejoin="round"/>
  <line x1="12" y1="22.08" x2="12" y2="12" stroke="url(#3d-cube-gradient)" stroke-width="1.5" stroke-linecap="round" stroke-linejoin="round"/>
  <line x1="7.5" y1="4.21" x2="16.5" y2="9.4" stroke="url(#3d-cube-gradient)" stroke-width="1.5" stroke-linecap="round" stroke-linejoin="round"/>
</svg>
