<svg viewBox="0 0 24 24" width="24" height="24" fill="none" xmlns="http://www.w3.org/2000/svg">
  <defs>
    <linearGradient id="shower-gradient" x1="0%" y1="0%" x2="100%" y2="100%">
      <stop offset="0%" style="stop-color:#fc466b;stop-opacity:1" />
      <stop offset="100%" style="stop-color:#3f5efb;stop-opacity:1" />
    </linearGradient>
  </defs>
  <path d="M4 4v2.5c0 .6.4 1 1 1h14c.6 0 1-.4 1-1V4a2 2 0 0 0-2-2H6a2 2 0 0 0-2 2Z"/>
  <path d="M7 12v1"/>
  <path d="M10 12v1"/>
  <path d="M13 12v1"/>
  <path d="M16 12v1"/>
  <path d="M7 16v1"/>
  <path d="M10 16v1"/>
  <path d="M13 16v1"/>
  <path d="M16 16v1"/>
  <path d="M7 20v1"/>
  <path d="M10 20v1"/>
  <path d="M13 20v1"/>
  <path d="M16 20v1"/>
</svg>
