<svg viewBox="0 0 24 24" width="24" height="24" fill="none" xmlns="http://www.w3.org/2000/svg">
  <defs>
    <linearGradient id="vr-gradient" x1="0%" y1="0%" x2="100%" y2="100%">
      <stop offset="0%" style="stop-color:#8e2de2;stop-opacity:1" />
      <stop offset="100%" style="stop-color:#4a00e0;stop-opacity:1" />
    </linearGradient>
  </defs>
  <path d="M2 12a10 10 0 0 1 20 0v4a2 2 0 0 1-2 2h-2a2 2 0 0 1-2-2v-2a2 2 0 0 0-4 0v2a2 2 0 0 1-2 2H4a2 2 0 0 1-2-2v-4z" stroke="url(#vr-gradient)" stroke-width="1.5" stroke-linecap="round" stroke-linejoin="round" fill="url(#vr-gradient)" opacity="0.2"/>
  <circle cx="7" cy="12" r="2" stroke="url(#vr-gradient)" stroke-width="1.5"/>
  <circle cx="17" cy="12" r="2" stroke="url(#vr-gradient)" stroke-width="1.5"/>
</svg>
