<svg viewBox="0 0 24 24" width="24" height="24" fill="none" xmlns="http://www.w3.org/2000/svg">
  <defs>
    <linearGradient id="discord-gradient" x1="0%" y1="0%" x2="100%" y2="100%">
      <stop offset="0%" style="stop-color:#5865f2;stop-opacity:1" />
      <stop offset="100%" style="stop-color:#7289da;stop-opacity:1" />
    </linearGradient>
  </defs>
  <path d="M9 6c-2 0-3.5 1-4.5 2.5C4 10 4 12 4 12s0 2 .5 3.5C5.5 17 7 18 9 18h6c2 0 3.5-1 4.5-2.5.5-1.5.5-3.5.5-3.5s0-2-.5-3.5C18.5 7 17 6 15 6H9z" stroke="url(#discord-gradient)" stroke-width="1.5" fill="url(#discord-gradient)" opacity="0.2"/>
  <circle cx="9.5" cy="12" r="1.5" fill="url(#discord-gradient)"/>
  <circle cx="14.5" cy="12" r="1.5" fill="url(#discord-gradient)"/>
</svg>
