<svg viewBox="0 0 24 24" width="24" height="24" fill="none" xmlns="http://www.w3.org/2000/svg">
  <defs>
    <linearGradient id="butterfly-gradient" x1="0%" y1="0%" x2="100%" y2="100%">
      <stop offset="0%" style="stop-color:#56ab2f;stop-opacity:1" />
      <stop offset="100%" style="stop-color:#a8e063;stop-opacity:1" />
    </linearGradient>
  </defs>
  <path d="M12 18V6a4 4 0 0 0-4-4 4 4 0 0 0-4 4 4 4 0 0 0 4 4h4Z"/>
  <path d="M12 18a4 4 0 0 0 4 4 4 4 0 0 0 4-4 4 4 0 0 0-4-4h-4Z"/>
  <path d="M12 6h4a4 4 0 0 1 4 4 4 4 0 0 1-4 4h-4Z"/>
  <path d="M12 18H8a4 4 0 0 1-4-4 4 4 0 0 1 4-4h4Z"/>
  <circle cx="12" cy="12" r="1"/>
</svg>
