<svg viewBox="0 0 24 24" width="24" height="24" fill="none" xmlns="http://www.w3.org/2000/svg">
  <defs>
    <linearGradient id="backpack-gradient" x1="0%" y1="0%" x2="100%" y2="100%">
      <stop offset="0%" style="stop-color:#ffd89b;stop-opacity:1" />
      <stop offset="100%" style="stop-color:#19547b;stop-opacity:1" />
    </linearGradient>
  </defs>
  <path d="M4 10a4 4 0 0 1 4-4h8a4 4 0 0 1 4 4v10a2 2 0 0 1-2 2H6a2 2 0 0 1-2-2Z"/>
  <path d="M9 6V4a2 2 0 0 1 2-2h2a2 2 0 0 1 2 2v2"/>
  <path d="M8 21v-5a2 2 0 0 1 2-2h4a2 2 0 0 1 2 2v5"/>
  <path d="M8 10h8"/>
</svg>
