<svg viewBox="0 0 24 24" width="24" height="24" fill="none" xmlns="http://www.w3.org/2000/svg">
  <defs>
    <linearGradient id="spatial-computing-gradient" x1="0%" y1="0%" x2="100%" y2="100%">
      <stop offset="0%" style="stop-color:#4facfe;stop-opacity:1" />
      <stop offset="100%" style="stop-color:#00f2fe;stop-opacity:1" />
    </linearGradient>
  </defs>
  <path d="M3 8h18a1 1 0 0 1 1 1v6a1 1 0 0 1-1 1H3a1 1 0 0 1-1-1V9a1 1 0 0 1 1-1z" stroke="url(#spatial-computing-gradient)" stroke-width="1.5" fill="url(#spatial-computing-gradient)" opacity="0.2"/>
  <circle cx="8" cy="12" r="2.5" stroke="url(#spatial-computing-gradient)" stroke-width="1.5"/>
  <circle cx="16" cy="12" r="2.5" stroke="url(#spatial-computing-gradient)" stroke-width="1.5"/>
  <path d="M2 10l-1 2 1 2M22 10l1 2-1 2" stroke="url(#spatial-computing-gradient)" stroke-width="1.5" stroke-linecap="round" stroke-linejoin="round"/>
  <line x1="11" y1="8" x2="13" y2="8" stroke="url(#spatial-computing-gradient)" stroke-width="1.5" stroke-linecap="round"/>
</svg>
