<svg viewBox="0 0 24 24" width="24" height="24" fill="none" xmlns="http://www.w3.org/2000/svg">
  <defs>
    <linearGradient id="package-gradient" x1="0%" y1="0%" x2="100%" y2="100%">
      <stop offset="0%" style="stop-color:#d66d75;stop-opacity:1" />
      <stop offset="100%" style="stop-color:#e29587;stop-opacity:1" />
    </linearGradient>
  </defs>
  <line x1="16.5" y1="9.4" x2="7.5" y2="4.21" stroke="url(#package-gradient)" stroke-width="1.5" stroke-linecap="round" stroke-linejoin="round"/>
  <path d="M21 16V8a2 2 0 0 0-1-1.73l-7-4a2 2 0 0 0-2 0l-7 4A2 2 0 0 0 3 8v8a2 2 0 0 0 1 1.73l7 4a2 2 0 0 0 2 0l7-4A2 2 0 0 0 21 16z" stroke="url(#package-gradient)" stroke-width="1.5" stroke-linecap="round" stroke-linejoin="round" fill="url(#package-gradient)" opacity="0.1"/>
  <polyline points="3.27 6.96 12 12.01 20.73 6.96" stroke="url(#package-gradient)" stroke-width="1.5" stroke-linecap="round" stroke-linejoin="round"/>
  <line x1="12" y1="22.08" x2="12" y2="12" stroke="url(#package-gradient)" stroke-width="1.5" stroke-linecap="round" stroke-linejoin="round"/>
</svg>
