<svg viewBox="0 0 24 24" width="24" height="24" fill="none" xmlns="http://www.w3.org/2000/svg">
  <defs>
    <linearGradient id="stethoscope-gradient" x1="0%" y1="0%" x2="100%" y2="100%">
      <stop offset="0%" style="stop-color:#06beb6;stop-opacity:1" />
      <stop offset="100%" style="stop-color:#48b1bf;stop-opacity:1" />
    </linearGradient>
  </defs>
  <path d="M4.8 2.3A.3.3 0 1 0 5 2H4a2 2 0 0 0-2 2v5a6 6 0 0 0 6 6v0a6 6 0 0 0 6-6V4a2 2 0 0 0-2-2h-1a.2.2 0 1 0 .3.3" stroke="url(#stethoscope-gradient)" stroke-width="1.5" stroke-linecap="round" stroke-linejoin="round"/>
  <path d="M8 15v1a6 6 0 0 0 6 6v0a6 6 0 0 0 6-6v-4" stroke="url(#stethoscope-gradient)" stroke-width="1.5" stroke-linecap="round" stroke-linejoin="round"/>
  <circle cx="20" cy="10" r="2" stroke="url(#stethoscope-gradient)" stroke-width="1.5" stroke-linecap="round" stroke-linejoin="round" fill="url(#stethoscope-gradient)" opacity="0.3"/>
</svg>
