<svg viewBox="0 0 24 24" width="24" height="24" fill="none" xmlns="http://www.w3.org/2000/svg">
  <defs>
    <linearGradient id="ai-chip-gradient" x1="0%" y1="0%" x2="100%" y2="100%">
      <stop offset="0%" style="stop-color:#667eea;stop-opacity:1" />
      <stop offset="50%" style="stop-color:#764ba2;stop-opacity:1" />
      <stop offset="100%" style="stop-color:#f093fb;stop-opacity:1" />
    </linearGradient>
  </defs>
  <rect x="4" y="4" width="16" height="16" rx="2" stroke="url(#ai-chip-gradient)" stroke-width="1.5" stroke-linecap="round" stroke-linejoin="round" fill="url(#ai-chip-gradient)" opacity="0.1"/>
  <path d="M9 9h6v6H9z" stroke="url(#ai-chip-gradient)" stroke-width="1.5" stroke-linecap="round" stroke-linejoin="round" fill="url(#ai-chip-gradient)" opacity="0.3"/>
  <line x1="9" y1="1" x2="9" y2="4" stroke="url(#ai-chip-gradient)" stroke-width="1.5"/>
  <line x1="12" y1="1" x2="12" y2="4" stroke="url(#ai-chip-gradient)" stroke-width="1.5"/>
  <line x1="15" y1="1" x2="15" y2="4" stroke="url(#ai-chip-gradient)" stroke-width="1.5"/>
  <line x1="9" y1="20" x2="9" y2="23" stroke="url(#ai-chip-gradient)" stroke-width="1.5"/>
  <line x1="12" y1="20" x2="12" y2="23" stroke="url(#ai-chip-gradient)" stroke-width="1.5"/>
  <line x1="15" y1="20" x2="15" y2="23" stroke="url(#ai-chip-gradient)" stroke-width="1.5"/>
  <line x1="20" y1="9" x2="23" y2="9" stroke="url(#ai-chip-gradient)" stroke-width="1.5"/>
  <line x1="20" y1="12" x2="23" y2="12" stroke="url(#ai-chip-gradient)" stroke-width="1.5"/>
  <line x1="20" y1="15" x2="23" y2="15" stroke="url(#ai-chip-gradient)" stroke-width="1.5"/>
  <line x1="1" y1="9" x2="4" y2="9" stroke="url(#ai-chip-gradient)" stroke-width="1.5"/>
  <line x1="1" y1="12" x2="4" y2="12" stroke="url(#ai-chip-gradient)" stroke-width="1.5"/>
  <line x1="1" y1="15" x2="4" y2="15" stroke="url(#ai-chip-gradient)" stroke-width="1.5"/>
  <circle cx="12" cy="12" r="2" stroke="url(#ai-chip-gradient)" stroke-width="1.5" fill="url(#ai-chip-gradient)" opacity="0.5"/>
</svg>
