<svg viewBox="0 0 24 24" width="24" height="24" fill="none" xmlns="http://www.w3.org/2000/svg">
  <defs>
    <linearGradient id="sprout-gradient" x1="0%" y1="0%" x2="100%" y2="100%">
      <stop offset="0%" style="stop-color:#56ab2f;stop-opacity:1" />
      <stop offset="100%" style="stop-color:#a8e063;stop-opacity:1" />
    </linearGradient>
  </defs>
  <path d="M7 20h10"/>
  <path d="M10 20c5.5-2.5.8-6.4 3-10"/>
  <path d="M9.5 9.4c1.1.8 1.8 2.2 2.3 3.7-2 .4-3.5.4-4.8-.3-1.2-.6-2.3-1.9-3-4.2 2.8-.5 4.4 0 5.5.8z"/>
  <path d="M14.1 6a7 7 0 0 0-1.1 4c1.9-.1 3.3-.6 4.3-1.4 1-1 1.6-2.3 1.7-4.6-2.7.1-4 1-4.9 2z"/>
</svg>
