<svg viewBox="0 0 24 24" width="24" height="24" fill="none" xmlns="http://www.w3.org/2000/svg">
  <defs>
    <linearGradient id="vision-pro-gradient" x1="0%" y1="0%" x2="100%" y2="100%">
      <stop offset="0%" style="stop-color:#00c6ff;stop-opacity:1" />
      <stop offset="100%" style="stop-color:#0072ff;stop-opacity:1" />
    </linearGradient>
  </defs>
  <path d="M2 10c0-2 1-4 3-5s5-1 7-1 5 0 7 1 3 3 3 5v4c0 2-1 4-3 5s-5 1-7 1-5 0-7-1-3-3-3-5v-4z" stroke="url(#vision-pro-gradient)" stroke-width="1.5" fill="url(#vision-pro-gradient)" opacity="0.2"/>
  <ellipse cx="8" cy="12" rx="3" ry="3.5" stroke="url(#vision-pro-gradient)" stroke-width="1.5"/>
  <ellipse cx="16" cy="12" rx="3" ry="3.5" stroke="url(#vision-pro-gradient)" stroke-width="1.5"/>
  <path d="M2 11h2M20 11h2" stroke="url(#vision-pro-gradient)" stroke-width="1.5" stroke-linecap="round"/>
  <circle cx="8" cy="12" r="1" fill="url(#vision-pro-gradient)"/>
  <circle cx="16" cy="12" r="1" fill="url(#vision-pro-gradient)"/>
</svg>
