<svg viewBox="0 0 24 24" width="24" height="24" fill="none" xmlns="http://www.w3.org/2000/svg">
  <defs>
    <linearGradient id="ship-gradient" x1="0%" y1="0%" x2="100%" y2="100%">
      <stop offset="0%" style="stop-color:#2e3192;stop-opacity:1" />
      <stop offset="100%" style="stop-color:#1bffff;stop-opacity:1" />
    </linearGradient>
  </defs>
  <path d="M2 21c.6.5 1.2 1 2.5 1 2.5 0 2.5-2 5-2s2.5 2 5 2 2.5-2 5-2c1.3 0 1.9.5 2.5 1" stroke="url(#ship-gradient)" stroke-width="1.5" stroke-linecap="round" stroke-linejoin="round"/>
  <path d="M19.38 20A11.6 11.6 0 0 0 21 14l-9-4-9 4c0 2.9.94 5.34 2.81 7.76" stroke="url(#ship-gradient)" stroke-width="1.5" stroke-linecap="round" stroke-linejoin="round"/>
  <path d="M19 13V7a2 2 0 0 0-2-2H7a2 2 0 0 0-2 2v6" stroke="url(#ship-gradient)" stroke-width="1.5" stroke-linecap="round" stroke-linejoin="round" fill="url(#ship-gradient)" opacity="0.1"/>
  <path d="M12 10v4" stroke="url(#ship-gradient)" stroke-width="1.5" stroke-linecap="round" stroke-linejoin="round"/>
</svg>
