<svg viewBox="0 0 24 24" width="24" height="24" fill="none" xmlns="http://www.w3.org/2000/svg">
  <defs>
    <linearGradient id="signal-gradient" x1="0%" y1="0%" x2="100%" y2="100%">
      <stop offset="0%" style="stop-color:#a044ff;stop-opacity:1" />
      <stop offset="100%" style="stop-color:#6a3093;stop-opacity:1" />
    </linearGradient>
  </defs>
  <path d="M21 16V8a2 2 0 0 0-1-1.73l-7-4a2 2 0 0 0-2 0l-7 4A2 2 0 0 0 3 8v8a2 2 0 0 0 1 1.73l7 4a2 2 0 0 0 2 0l7-4A2 2 0 0 0 21 16z" stroke="url(#signal-gradient)" stroke-width="1.5" stroke-linecap="round" stroke-linejoin="round" fill="url(#signal-gradient)" opacity="0.1"/>
  <path d="M12 8v8" stroke="url(#signal-gradient)" stroke-width="1.5" stroke-linecap="round" stroke-linejoin="round" fill="url(#signal-gradient)" opacity="0.1"/>
  <path d="M8 12h8" stroke="url(#signal-gradient)" stroke-width="1.5" stroke-linecap="round" stroke-linejoin="round" fill="url(#signal-gradient)" opacity="0.1"/>
</svg>
