<svg viewBox="0 0 24 24" width="24" height="24" fill="none" xmlns="http://www.w3.org/2000/svg">
  <defs>
    <linearGradient id="auto-car-gradient" x1="0%" y1="0%" x2="100%" y2="100%">
      <stop offset="0%" style="stop-color:#4facfe;stop-opacity:1" />
      <stop offset="100%" style="stop-color:#00f2fe;stop-opacity:1" />
    </linearGradient>
  </defs>
  <path d="M5 11l2-7h10l2 7H5z" stroke="url(#auto-car-gradient)" stroke-width="1.5" stroke-linejoin="round" fill="url(#auto-car-gradient)" opacity="0.2"/>
  <path d="M3 11v4a2 2 0 0 0 2 2h1a2 2 0 0 0 2-2v-1m10 0v1a2 2 0 0 0 2 2h1a2 2 0 0 0 2-2v-4" stroke="url(#auto-car-gradient)" stroke-width="1.5" stroke-linecap="round" stroke-linejoin="round"/>
  <circle cx="7" cy="15" r="1.5" fill="url(#auto-car-gradient)"/>
  <circle cx="17" cy="15" r="1.5" fill="url(#auto-car-gradient)"/>
  <circle cx="12" cy="7" r="2" stroke="url(#auto-car-gradient)" stroke-width="1.5"/>
  <path d="M10 7h4" stroke="url(#auto-car-gradient)" stroke-width="1.5" stroke-dasharray="1 1"/>
</svg>
