<svg viewBox="0 0 24 24" width="24" height="24" fill="none" xmlns="http://www.w3.org/2000/svg">
  <defs>
    <linearGradient id="playstation-gradient" x1="0%" y1="0%" x2="100%" y2="100%">
      <stop offset="0%" style="stop-color:#ffd89b;stop-opacity:1" />
      <stop offset="100%" style="stop-color:#19547b;stop-opacity:1" />
    </linearGradient>
  </defs>
  <path d="M12 2a10 10 0 0 1 7 3" stroke="url(#playstation-gradient)" stroke-width="1.5" stroke-linecap="round" stroke-linejoin="round" fill="url(#playstation-gradient)" opacity="0.1"/>
  <path d="M19 5a10 10 0 0 1 3 7" stroke="url(#playstation-gradient)" stroke-width="1.5" stroke-linecap="round" stroke-linejoin="round" fill="url(#playstation-gradient)" opacity="0.1"/>
  <path d="M22 12a10 10 0 0 1-3 7" stroke="url(#playstation-gradient)" stroke-width="1.5" stroke-linecap="round" stroke-linejoin="round" fill="url(#playstation-gradient)" opacity="0.1"/>
  <path d="M19 19a10 10 0 0 1-7 3" stroke="url(#playstation-gradient)" stroke-width="1.5" stroke-linecap="round" stroke-linejoin="round" fill="url(#playstation-gradient)" opacity="0.1"/>
  <path d="M12 22a10 10 0 0 1-7-3" stroke="url(#playstation-gradient)" stroke-width="1.5" stroke-linecap="round" stroke-linejoin="round" fill="url(#playstation-gradient)" opacity="0.1"/>
  <path d="M5 19a10 10 0 0 1-3-7" stroke="url(#playstation-gradient)" stroke-width="1.5" stroke-linecap="round" stroke-linejoin="round" fill="url(#playstation-gradient)" opacity="0.1"/>
  <path d="M2 12a10 10 0 0 1 3-7" stroke="url(#playstation-gradient)" stroke-width="1.5" stroke-linecap="round" stroke-linejoin="round" fill="url(#playstation-gradient)" opacity="0.1"/>
  <path d="M5 5a10 10 0 0 1 7-3" stroke="url(#playstation-gradient)" stroke-width="1.5" stroke-linecap="round" stroke-linejoin="round" fill="url(#playstation-gradient)" opacity="0.1"/>
</svg>
