<svg viewBox="0 0 24 24" width="24" height="24" fill="none" stroke="currentColor" stroke-width="1.5" stroke-linecap="round" stroke-linejoin="round" xmlns="http://www.w3.org/2000/svg">
  <path d="M9 8c-3.3 0-6 2-6 4.5S5.7 17 9 17c.5 0 1-.1 1.4-.2L13 19v-2.3c1.2-.8 2-2 2-3.2 0-2.5-2.7-4.5-6-4.5z"/>
  <circle cx="7.5" cy="11.5" r="0.5" fill="currentColor"/>
  <circle cx="10.5" cy="11.5" r="0.5" fill="currentColor"/>
  <path d="M17 5c2.8 0 5 1.8 5 4s-2.2 4-5 4c-.4 0-.8 0-1.2-.1L14 15v-1.9C12.9 12.4 12 11 12 9.5c0-2.2 2.2-4 5-4.5z"/>
  <circle cx="16" cy="9" r="0.5" fill="currentColor"/>
  <circle cx="18.5" cy="9" r="0.5" fill="currentColor"/>
</svg>
