<svg viewBox="0 0 24 24" width="24" height="24" fill="none" xmlns="http://www.w3.org/2000/svg">
  <defs>
    <linearGradient id="grad-croissant" x1="0%" y1="0%" x2="100%" y2="100%">
      <stop offset="0%" style="stop-color:#fbbf24;stop-opacity:1"/>
      <stop offset="100%" style="stop-color:#f59e0b;stop-opacity:1"/>
    </linearGradient>
  </defs>
  <g stroke="url(#grad-croissant)" stroke-width="1.5" stroke-linecap="round" stroke-linejoin="round" fill="none">
    <path d="M4 14c0-3 2-5 4-6 1-1 3-2 6-2s5 1 6 2c2 1 4 3 4 6 0 2-1 3-2 4-2 2-4 2-6 2H8c-2 0-4 0-6-2-1-1-2-2-2-4z"/><path d="M6 12c1-2 3-3 6-3s5 1 6 3"/>
  </g>
</svg>