<svg viewBox="0 0 24 24" width="24" height="24" fill="none" xmlns="http://www.w3.org/2000/svg">
  <defs>
    <linearGradient id="grad-flower-bloom" x1="0%" y1="0%" x2="100%" y2="100%">
      <stop offset="0%" style="stop-color:#ec4899;stop-opacity:1"/>
      <stop offset="100%" style="stop-color:#f472b6;stop-opacity:1"/>
    </linearGradient>
  </defs>
  <g stroke="url(#grad-flower-bloom)" stroke-width="1.5" stroke-linecap="round" stroke-linejoin="round" fill="none">
    <circle cx="12" cy="12" r="2"/><path d="M12 2a3 3 0 00-3 3c0 1.5 1 2 3 3 2-1 3-1.5 3-3a3 3 0 00-3-3zM12 22a3 3 0 003-3c0-1.5-1-2-3-3-2 1-3 1.5-3 3a3 3 0 003 3zM22 12a3 3 0 00-3-3c-1.5 0-2 1-3 3 1 2 1.5 3 3 3a3 3 0 003-3zM2 12a3 3 0 003 3c1.5 0 2-1 3-3-1-2-1.5-3-3-3a3 3 0 00-3 3z"/>
  </g>
</svg>