<svg viewBox="0 0 24 24" width="24" height="24" fill="none" stroke="url(#grad-savanna-plain)" stroke-width="1.5" stroke-linecap="round" stroke-linejoin="round" xmlns="http://www.w3.org/2000/svg">
  <defs>
    <linearGradient id="grad-savanna-plain" x1="0%" y1="0%" x2="100%" y2="100%">
      <stop offset="0%" style="stop-color:#FBBF24;stop-opacity:1"/>
      <stop offset="100%" style="stop-color:#F59E0B;stop-opacity:1"/>
    </linearGradient>
  </defs>
  <path d="M12 2c-2 0-4 2-4 4v8c0 2 2 4 4 4s4-2 4-4V6c0-2-2-4-4-4z"/><path d="M8 10c-2 0-3 1-3 3v5c0 1 1 2 2 2"/><path d="M16 10c2 0 3 1 3 3v5c0 1-1 2-2 2"/><line x1="12" y1="18" x2="12" y2="22"/>
</svg>