<svg viewBox="0 0 24 24" width="24" height="24" fill="none" xmlns="http://www.w3.org/2000/svg">
  <defs>
    <linearGradient id="grad-wave-ocean" x1="0%" y1="0%" x2="100%" y2="100%">
      <stop offset="0%" style="stop-color:#06b6d4;stop-opacity:1"/>
      <stop offset="100%" style="stop-color:#0284c7;stop-opacity:1"/>
    </linearGradient>
  </defs>
  <g stroke="url(#grad-wave-ocean)" stroke-width="1.5" stroke-linecap="round" stroke-linejoin="round" fill="none">
    <path d="M2 12c.5-2 2-3 3.5-3s2.5 1 3.5 3c1-2 2-3 3.5-3s3 1 3.5 3c.5-2 2-3 3.5-3s3 1 3.5 3M2 18c.5-2 2-3 3.5-3s2.5 1 3.5 3c1-2 2-3 3.5-3s3 1 3.5 3c.5-2 2-3 3.5-3s3 1 3.5 3"/>
  </g>
</svg>