<svg viewBox="0 0 24 24" width="24" height="24" fill="none" stroke="url(#grad-pointer)" stroke-width="1.5" stroke-linecap="round" stroke-linejoin="round" xmlns="http://www.w3.org/2000/svg">
  <defs>
    <linearGradient id="grad-pointer" x1="0%" y1="0%" x2="100%" y2="100%">
      <stop offset="0%" style="stop-color:#3b82f6;stop-opacity:1"/>
      <stop offset="100%" style="stop-color:#8b5cf6;stop-opacity:1"/>
    </linearGradient>
  </defs>
  <path d="M22 14a8 8 0 0 1-8 8"/>
  <path d="M18 11v-1a2 2 0 0 0-2-2v0a2 2 0 0 0-2 2v0"/>
  <path d="M14 10V9a2 2 0 0 0-2-2v0a2 2 0 0 0-2 2v1"/>
  <path d="M10 9.5V4a2 2 0 0 0-2-2v0a2 2 0 0 0-2 2v10"/>
  <path d="M18 11a2 2 0 1 1 4 0v3a8 8 0 0 1-8 8h-2c-2.8 0-4.5-.86-5.99-2.34l-3.6-3.6a2 2 0 0 1 2.83-2.82L7 15"/>
</svg>
