<svg viewBox="0 0 24 24" width="24" height="24" fill="none" stroke="currentColor" stroke-width="1.5" stroke-linecap="round" stroke-linejoin="round" xmlns="http://www.w3.org/2000/svg">
  <circle cx="12" cy="12" r="3"/>
  <path d="M12 16.5A4.5 4.5 0 1 1 7.5 12 4.5 4.5 0 1 1 12 7.5a4.5 4.5 0 1 1 4.5 4.5 4.5 4.5 0 1 1-4.5 4.5"/>
  <path d="M12 7.5V9"/>
  <path d="M7.5 12H9"/>
  <path d="M16.5 12H15"/>
  <path d="M12 16.5V15"/>
  <path d="M8.99 8.99l1.06 1.06"/>
  <path d="M8.99 15.01l1.06-1.06"/>
  <path d="M15.01 8.99l-1.06 1.06"/>
  <path d="M15.01 15.01l-1.06-1.06"/>
</svg>
