<svg viewBox="0 0 24 24" width="24" height="24" fill="none" stroke="currentColor" stroke-width="1.5" stroke-linecap="round" stroke-linejoin="round" xmlns="http://www.w3.org/2000/svg">
  <style>
    path:nth-child(odd) { opacity: 0.3; }
    rect:nth-child(odd) { opacity: 0.3; }
    circle:nth-child(odd) { opacity: 0.3; }
  </style>
  <path <animate attributeName="opacity" values="1;0.6;1" dur="2s" repeatCount="indefinite"/> d="M2 9a3 3 0 0 1 0 6v2a2 2 0 0 0 2 2h16a2 2 0 0 0 2-2v-2a3 3 0 0 1 0-6V7a2 2 0 0 0-2-2H4a2 2 0 0 0-2 2Z"/>
  <path <animate attributeName="opacity" values="1;0.6;1" dur="2s" repeatCount="indefinite"/> d="M13 5v2"/>
  <path <animate attributeName="opacity" values="1;0.6;1" dur="2s" repeatCount="indefinite"/> d="M13 17v2"/>
  <path <animate attributeName="opacity" values="1;0.6;1" dur="2s" repeatCount="indefinite"/> d="M13 11v2"/>
</svg>
