<svg viewBox="0 0 24 24" width="24" height="24" fill="none" xmlns="http://www.w3.org/2000/svg">
  <defs>
    <linearGradient id="grad-palette" x1="0%" y1="0%" x2="100%" y2="100%">
      <stop offset="0%" style="stop-color:#ec4899;stop-opacity:1"/>
      <stop offset="100%" style="stop-color:#f97316;stop-opacity:1"/>
    </linearGradient>
  </defs>
  <g stroke="url(#grad-palette)" stroke-width="1.5" stroke-linecap="round" stroke-linejoin="round" fill="none">
    <path d="M12 2C6.5 2 2 6.5 2 12s4.5 10 10 10c1.7 0 3-1.3 3-3 0-.8-.3-1.5-.8-2-.5-.5-.8-1.2-.8-2 0-1.7 1.3-3 3-3h2.5c3 0 5.5-2.5 5.5-5.5C22 6.5 17.5 2 12 2z"/><circle cx="7" cy="10" r="1" fill="currentColor"/><circle cx="11" cy="7" r="1" fill="currentColor"/><circle cx="15" cy="7" r="1" fill="currentColor"/><circle cx="17" cy="11" r="1" fill="currentColor"/>
  </g>
</svg>