<svg viewBox="0 0 24 24" width="24" height="24" fill="none" stroke="url(#grad-theater-mask)" stroke-width="1.5" stroke-linecap="round" stroke-linejoin="round" xmlns="http://www.w3.org/2000/svg">
  <defs>
    <linearGradient id="grad-theater-mask" x1="0%" y1="0%" x2="100%" y2="100%">
      <stop offset="0%" style="stop-color:#F093FB;stop-opacity:1"/>
      <stop offset="100%" style="stop-color:#F5576C;stop-opacity:1"/>
    </linearGradient>
  </defs>
  <path d="M12 3C7 3 3 7 3 12c0 3 1 5 3 6 2 1 4 0 5-2"/>
  <path d="M12 3c5 0 9 4 9 9 0 3-1 5-3 6-2 1-4 0-5-2"/>
  <circle cx="9" cy="10" r="1" fill="url(#grad-theater-mask)"/>
  <circle cx="15" cy="10" r="1" fill="url(#grad-theater-mask)"/>
  <path d="M8 14s1-1 4-1 4 1 4 1"/>
</svg>
