<svg viewBox="0 0 24 24" width="24" height="24" fill="url(#grad-filled-dna)" stroke="none" xmlns="http://www.w3.org/2000/svg">
  <defs>
    <linearGradient id="grad-filled-dna" x1="0%" y1="0%" x2="100%" y2="100%">
      <stop offset="0%" style="stop-color:#10b981;stop-opacity:1"/>
      <stop offset="100%" style="stop-color:#06b6d4;stop-opacity:1"/>
    </linearGradient>
  </defs>
  <style>
    @keyframes iconPulse { 0%, 100% { opacity: 1; } 50% { opacity: 0.6; } }
    path, circle, rect, ellipse, polygon { animation: iconPulse 2s ease-in-out infinite; }
  </style>
  <path d="M2 15c6.667-6 13.333 0 20-6"/>
  <path d="M9 22c1.798-1.998 2.518-3.995 2.807-5.993"/>
  <path d="M15 2c-1.798 1.998-2.518 3.995-2.807 5.993"/>
  <path d="m17 6-2.5-2.5"/>
  <path d="m14 8-1-1"/>
  <path d="m7 18 2.5 2.5"/>
  <path d="m3.5 14.5.5.5"/>
  <path d="m20 9 .5.5"/>
  <path d="m6.5 12.5 1 1"/>
  <path d="m16.5 10.5 1 1"/>
  <path d="m10 16 1.5 1.5"/>
</svg>
