<svg viewBox="0 0 24 24" width="24" height="24" fill="none" stroke="currentColor" stroke-width="2.5" stroke-linecap="round" stroke-linejoin="round" xmlns="http://www.w3.org/2000/svg">
  <style>
    @keyframes iconPulse { 0%, 100% { opacity: 1; } 50% { opacity: 0.6; } }
    path, circle, rect, ellipse, polygon { animation: iconPulse 2s ease-in-out infinite; }
  </style>
  <path d="M12 22v-8m0 0a5 5 0 0 0 5-5V7a5 5 0 0 0-10 0v2a5 5 0 0 0 5 5z"/>
  <path d="M12 14a5 5 0 0 0 5-5 5 5 0 0 0-5-5"/>
  <path d="M12 14a5 5 0 0 1-5-5 5 5 0 0 1 5-5"/>
</svg>
