<svg viewBox="0 0 24 24" width="24" height="24" fill="none" stroke="currentColor" stroke-width="2.5" stroke-linecap="round" stroke-linejoin="round" xmlns="http://www.w3.org/2000/svg">
  <path <animate attributeName="opacity" values="1;0.6;1" dur="2s" repeatCount="indefinite"/> d="M12 22v-8m0 0a5 5 0 0 0 5-5V7a5 5 0 0 0-10 0v2a5 5 0 0 0 5 5z"/>
  <path <animate attributeName="opacity" values="1;0.6;1" dur="2s" repeatCount="indefinite"/> d="M12 14a5 5 0 0 0 5-5 5 5 0 0 0-5-5"/>
  <path <animate attributeName="opacity" values="1;0.6;1" dur="2s" repeatCount="indefinite"/> d="M12 14a5 5 0 0 1-5-5 5 5 0 0 1 5-5"/>
</svg>
