<svg viewBox="0 0 24 24" width="24" height="24" fill="none" stroke="currentColor" stroke-width="1" stroke-linecap="round" stroke-linejoin="round" xmlns="http://www.w3.org/2000/svg">
  <style>
    @keyframes iconPulse { 0%, 100% { opacity: 1; } 50% { opacity: 0.6; } }
    path, circle, rect, ellipse, polygon { animation: iconPulse 2s ease-in-out infinite; }
  </style>
  <path d="M12 2a10 10 0 0 1 7 3"/>
  <path d="M19 5a10 10 0 0 1 3 7"/>
  <path d="M22 12a10 10 0 0 1-3 7"/>
  <path d="M19 19a10 10 0 0 1-7 3"/>
  <path d="M12 22a10 10 0 0 1-7-3"/>
  <path d="M5 19a10 10 0 0 1-3-7"/>
  <path d="M2 12a10 10 0 0 1 3-7"/>
  <path d="M5 5a10 10 0 0 1 7-3"/>
</svg>
