<svg viewBox="0 0 24 24" width="24" height="24" fill="none" stroke="url(#grad-tree)" stroke-width="1.5" stroke-linecap="round" stroke-linejoin="round" xmlns="http://www.w3.org/2000/svg">
  <defs>
    <linearGradient id="grad-tree" x1="0%" y1="0%" x2="100%" y2="100%">
      <stop offset="0%" style="stop-color:#3b82f6;stop-opacity:1"/>
      <stop offset="100%" style="stop-color:#8b5cf6;stop-opacity:1"/>
    </linearGradient>
  </defs>
  <path d="M12 22v-8m0 0a5 5 0 0 0 5-5V7a5 5 0 0 0-10 0v2a5 5 0 0 0 5 5z"/>
  <path d="M12 14a5 5 0 0 0 5-5 5 5 0 0 0-5-5"/>
  <path d="M12 14a5 5 0 0 1-5-5 5 5 0 0 1 5-5"/>
</svg>
