<svg viewBox="0 0 24 24" width="24" height="24" fill="url(#grad-filled-slack)" stroke="none" xmlns="http://www.w3.org/2000/svg">
  <defs>
    <linearGradient id="grad-filled-slack" x1="0%" y1="0%" x2="100%" y2="100%">
      <stop offset="0%" style="stop-color:#10b981;stop-opacity:1"/>
      <stop offset="100%" style="stop-color:#06b6d4;stop-opacity:1"/>
    </linearGradient>
  </defs>
  <style>
    @keyframes iconPulse { 0%, 100% { opacity: 1; } 50% { opacity: 0.6; } }
    path, circle, rect, ellipse, polygon { animation: iconPulse 2s ease-in-out infinite; }
  </style>
  <rect x="13" y="2" width="3" height="8" rx="1.5"/>
  <path d="M19 8.5a1.5 1.5 0 1 1-3 0 1.5 1.5 0 0 1 3 0z"/>
  <rect x="8" y="14" width="3" height="8" rx="1.5"/>
  <path d="M5 15.5a1.5 1.5 0 1 1 3 0 1.5 1.5 0 0 1-3 0z"/>
  <rect x="14" y="13" width="8" height="3" rx="1.5"/>
  <path d="M15.5 19a1.5 1.5 0 1 1 0-3 1.5 1.5 0 0 1 0 3z"/>
  <rect x="2" y="8" width="8" height="3" rx="1.5"/>
  <path d="M8.5 5a1.5 1.5 0 1 1 0 3 1.5 1.5 0 0 1 0-3z"/>
</svg>
