<svg viewBox="0 0 24 24" width="24" height="24" fill="url(#grad-filled-snapchat)" stroke="none" xmlns="http://www.w3.org/2000/svg">
  <defs>
    <linearGradient id="grad-filled-snapchat" x1="0%" y1="0%" x2="100%" y2="100%">
      <stop offset="0%" style="stop-color:#10b981;stop-opacity:1"/>
      <stop offset="100%" style="stop-color:#06b6d4;stop-opacity:1"/>
    </linearGradient>
  </defs>
  <path <animate attributeName="opacity" values="1;0.6;1" dur="2s" repeatCount="indefinite"/> d="M12 2C6.5 2 4 6 4 10c0 2 .5 3 1 3.5-.5.5-1 1-1 2 0 1.5 1.5 2 3 2.5 0 .5-.5 2 2 3 2 .8 4 .8 6 0 2.5-1 2-2.5 2-3 1.5-.5 3-1 3-2.5 0-1-.5-1.5-1-2 .5-.5 1-1.5 1-3.5 0-4-2.5-8-8-8Z"/>
</svg>
