<svg viewBox="0 0 24 24" width="24" height="24" fill="url(#grad-filled-whatsapp)" stroke="none" xmlns="http://www.w3.org/2000/svg">
  <defs>
    <linearGradient id="grad-filled-whatsapp" x1="0%" y1="0%" x2="100%" y2="100%">
      <stop offset="0%" style="stop-color:#10b981;stop-opacity:1"/>
      <stop offset="100%" style="stop-color:#06b6d4;stop-opacity:1"/>
    </linearGradient>
  </defs>
  <style>
    @keyframes iconPulse { 0%, 100% { opacity: 1; } 50% { opacity: 0.6; } }
    path, circle, rect, ellipse, polygon { animation: iconPulse 2s ease-in-out infinite; }
  </style>
  <path d="M3 21l1.65-3.8a9 9 0 1 1 3.4 2.9L3 21"/>
  <path d="M9 10a.5.5 0 0 0 1 0V9a.5.5 0 0 0-1 0v1a5 5 0 0 0 5 5h1a.5.5 0 0 0 0-1h-1a.5.5 0 0 0 0 1"/>
</svg>
