<svg viewBox="0 0 24 24" width="24" height="24" fill="none" stroke="currentColor" stroke-width="2.5" stroke-linecap="round" stroke-linejoin="round" xmlns="http://www.w3.org/2000/svg">
  <style>
    @keyframes iconPulse { 0%, 100% { opacity: 1; } 50% { opacity: 0.6; } }
    path, circle, rect, ellipse, polygon { animation: iconPulse 2s ease-in-out infinite; }
  </style>
  <path d="M4.8 2.3A.3.3 0 1 0 5 2H4a2 2 0 0 0-2 2v5a6 6 0 0 0 6 6v0a6 6 0 0 0 6-6V4a2 2 0 0 0-2-2h-1a.2.2 0 1 0 .3.3"/>
  <path d="M8 15v1a6 6 0 0 0 6 6v0a6 6 0 0 0 6-6v-4"/>
  <circle cx="20" cy="10" r="2"/>
</svg>
