<svg viewBox="0 0 24 24" width="24" height="24" fill="none" stroke="currentColor" stroke-width="1.5" stroke-linecap="round" stroke-linejoin="round" xmlns="http://www.w3.org/2000/svg">
  <style>
    path:nth-child(odd) { opacity: 0.3; }
    rect:nth-child(odd) { opacity: 0.3; }
    circle:nth-child(odd) { opacity: 0.3; }
  </style>
  <style>
    @keyframes iconPulse { 0%, 100% { opacity: 1; } 50% { opacity: 0.6; } }
    path, circle, rect, ellipse, polygon { animation: iconPulse 2s ease-in-out infinite; }
  </style>
  <path d="M18 3a3 3 0 0 0-3 3v12a3 3 0 0 0 3 3 3 3 0 0 0 3-3 3 3 0 0 0-3-3H6a3 3 0 0 0-3 3 3 3 0 0 0 3 3 3 3 0 0 0 3-3V6a3 3 0 0 0-3-3 3 3 0 0 0-3 3 3 3 0 0 0 3 3h12a3 3 0 0 0 3-3 3 3 0 0 0-3-3z"/>
</svg>
