<svg viewBox="0 0 24 24" width="24" height="24" fill="none" xmlns="http://www.w3.org/2000/svg">
  <defs>
    <linearGradient id="grad-sofa-couch" x1="0%" y1="0%" x2="100%" y2="100%">
      <stop offset="0%" style="stop-color:#7c3aed;stop-opacity:1"/>
      <stop offset="100%" style="stop-color:#6d28d9;stop-opacity:1"/>
    </linearGradient>
  </defs>
  <g stroke="url(#grad-sofa-couch)" stroke-width="1.5" stroke-linecap="round" stroke-linejoin="round" fill="none">
    <path d="M20 9V6a2 2 0 00-2-2H6a2 2 0 00-2 2v3"/><path d="M2 11a2 2 0 012-2h0a2 2 0 012 2v3H2v-3zM20 14v-3a2 2 0 012-2h0a2 2 0 012 2v3h-4z"/><rect x="2" y="14" width="20" height="4"/><path d="M4 18v2M20 18v2"/>
  </g>
</svg>