<svg viewBox="0 0 24 24" width="24" height="24" fill="none" xmlns="http://www.w3.org/2000/svg">
  <defs>
    <linearGradient id="ship-anim-gradient" x1="0%" y1="0%" x2="100%" y2="100%">
      <stop offset="0%" style="stop-color:#2e3192;stop-opacity:1" />
      <stop offset="100%" style="stop-color:#1bffff;stop-opacity:1" />
    </linearGradient>
  </defs>
  <path d="M2 21c.6.5 1.2 1 2.5 1 2.5 0 2.5-2 5-2s2.5 2 5 2 2.5-2 5-2c1.3 0 1.9.5 2.5 1" stroke="url(#ship-anim-gradient)" stroke-width="1.5" stroke-linecap="round" stroke-linejoin="round">
    <animateTransform attributeName="transform" type="translate" values="0 0;0 1;0 0" dur="2s" repeatCount="indefinite"/>
    <animate attributeName="opacity" values="0.5;1;0.5" dur="2s" repeatCount="indefinite"/>
  </path>
  <path d="M19.38 20A11.6 11.6 0 0 0 21 14l-9-4-9 4c0 2.9.94 5.34 2.81 7.76" stroke="url(#ship-anim-gradient)" stroke-width="1.5" stroke-linecap="round" stroke-linejoin="round">
    <animate attributeName="opacity" values="0.7;1;0.7" dur="2s" repeatCount="indefinite"/>
  </path>
  <path d="M19 13V7a2 2 0 0 0-2-2H7a2 2 0 0 0-2 2v6" stroke="url(#ship-anim-gradient)" stroke-width="1.5" stroke-linecap="round" stroke-linejoin="round" fill="url(#ship-anim-gradient)" opacity="0.1">
    <animate attributeName="opacity" values="0.1;0.2;0.1" dur="3s" repeatCount="indefinite"/>
  </path>
  <path d="M12 10v4" stroke="url(#ship-anim-gradient)" stroke-width="1.5" stroke-linecap="round" stroke-linejoin="round">
    <animate attributeName="stroke-dasharray" values="0 8;8 0" dur="2s" repeatCount="indefinite"/>
  </path>
</svg>
