<svg viewBox="0 0 24 24" width="24" height="24" fill="none" xmlns="http://www.w3.org/2000/svg">
  <defs>
    <linearGradient id="auto-car-anim-gradient" x1="0%" y1="0%" x2="100%" y2="100%">
      <stop offset="0%" style="stop-color:#4facfe;stop-opacity:1" />
      <stop offset="100%" style="stop-color:#00f2fe;stop-opacity:1" />
    </linearGradient>
  </defs>
  <path d="M5 11l2-7h10l2 7H5z" stroke="url(#auto-car-anim-gradient)" stroke-width="1.5" stroke-linejoin="round" fill="url(#auto-car-anim-gradient)" opacity="0.2">
    <animate attributeName="opacity" values="0.2;0.4;0.2" dur="3s" repeatCount="indefinite"/>
  </path>
  <path d="M3 11v4a2 2 0 0 0 2 2h1a2 2 0 0 0 2-2v-1m10 0v1a2 2 0 0 0 2 2h1a2 2 0 0 0 2-2v-4" stroke="url(#auto-car-anim-gradient)" stroke-width="1.5" stroke-linecap="round" stroke-linejoin="round">
    <animateTransform attributeName="transform" type="translate" values="0 0;2 0;0 0" dur="3s" repeatCount="indefinite"/>
  </path>
  <circle cx="7" cy="15" r="1.5" fill="url(#auto-car-anim-gradient)">
    <animateTransform attributeName="transform" type="rotate" values="0 7 15;360 7 15" dur="2s" repeatCount="indefinite"/>
  </circle>
  <circle cx="17" cy="15" r="1.5" fill="url(#auto-car-anim-gradient)">
    <animateTransform attributeName="transform" type="rotate" values="0 17 15;360 17 15" dur="2s" repeatCount="indefinite"/>
  </circle>
  <circle cx="12" cy="7" r="2" stroke="url(#auto-car-anim-gradient)" stroke-width="1.5">
    <animate attributeName="r" values="2;2.5;2" dur="2s" repeatCount="indefinite"/>
    <animate attributeName="opacity" values="1;0.5;1" dur="2s" repeatCount="indefinite"/>
  </circle>
  <path d="M10 7h4" stroke="url(#auto-car-anim-gradient)" stroke-width="1.5" stroke-dasharray="1 1">
    <animate attributeName="stroke-dashoffset" values="0;-4" dur="1s" repeatCount="indefinite"/>
  </path>
</svg>
