<svg viewBox="0 0 24 24" width="24" height="24" fill="none" xmlns="http://www.w3.org/2000/svg">
  <g>
    <animateTransform attributeName="transform" type="rotate" values="0 12 12;-10 12 12;10 12 12;0 12 12" dur="2s" repeatCount="indefinite"/>
    <path d="M9 18V7a2 2 0 0 1 4 0v11" stroke="currentColor" stroke-width="1.5" stroke-linecap="round" stroke-linejoin="round"/>
    <path d="M13 16V5a2 2 0 0 1 4 0v11" stroke="currentColor" stroke-width="1.5" stroke-linecap="round" stroke-linejoin="round"/>
    <path d="M17 16v-4a2 2 0 0 1 4 0v6a5 5 0 0 1-5 5h-5a5 5 0 0 1-5-5v-2" stroke="currentColor" stroke-width="1.5" stroke-linecap="round" stroke-linejoin="round"/>
    <path d="M5 14V9a2 2 0 0 1 4 0v5" stroke="currentColor" stroke-width="1.5" stroke-linecap="round" stroke-linejoin="round"/>
  </g>
  <path d="M2 4l2 2 2-2" stroke="currentColor" stroke-width="1.5" stroke-linecap="round" stroke-linejoin="round">
    <animate attributeName="opacity" values="0.3;1;0.3" dur="1s" repeatCount="indefinite"/>
  </path>
</svg>
