<svg viewBox="0 0 24 24" width="24" height="24" fill="none" xmlns="http://www.w3.org/2000/svg">
  <defs>
    <linearGradient id="message-anim-gradient" x1="0%" y1="0%" x2="100%" y2="100%">
      <stop offset="0%" style="stop-color:#667eea;stop-opacity:1" />
      <stop offset="100%" style="stop-color:#764ba2;stop-opacity:1" />
    </linearGradient>
  </defs>
  <path d="M21 11.5a8.38 8.38 0 0 1-.9 3.8 8.5 8.5 0 0 1-7.6 4.7 8.38 8.38 0 0 1-3.8-.9L3 21l1.9-5.7a8.38 8.38 0 0 1-.9-3.8 8.5 8.5 0 0 1 4.7-7.6 8.38 8.38 0 0 1 3.8-.9h.5a8.48 8.48 0 0 1 8 8v.5z" stroke="url(#message-anim-gradient)" stroke-width="1.5" stroke-linecap="round" stroke-linejoin="round" fill="url(#message-anim-gradient)" opacity="0.2">
    <animate attributeName="opacity" values="0.2;0.3;0.2" dur="3s" repeatCount="indefinite"/>
  </path>
  <circle cx="9" cy="12" r="1" fill="url(#message-anim-gradient)">
    <animate attributeName="opacity" values="0.3;1;0.3" dur="1.5s" repeatCount="indefinite" begin="0s"/>
  </circle>
  <circle cx="12" cy="12" r="1" fill="url(#message-anim-gradient)">
    <animate attributeName="opacity" values="0.3;1;0.3" dur="1.5s" repeatCount="indefinite" begin="0.3s"/>
  </circle>
  <circle cx="15" cy="12" r="1" fill="url(#message-anim-gradient)">
    <animate attributeName="opacity" values="0.3;1;0.3" dur="1.5s" repeatCount="indefinite" begin="0.6s"/>
  </circle>
</svg>
