<svg viewBox="0 0 24 24" width="24" height="24" fill="none" xmlns="http://www.w3.org/2000/svg">
  <defs>
    <linearGradient id="headphones-anim-gradient" x1="0%" y1="0%" x2="100%" y2="100%">
      <stop offset="0%" style="stop-color:#614385;stop-opacity:1" />
      <stop offset="100%" style="stop-color:#516395;stop-opacity:1" />
    </linearGradient>
  </defs>
  <path d="M3 18v-6a9 9 0 0 1 18 0v6" stroke="url(#headphones-anim-gradient)" stroke-width="1.5" stroke-linecap="round" stroke-linejoin="round">
    <animate attributeName="stroke-dasharray" values="0 40;40 0" dur="3s" repeatCount="indefinite"/>
  </path>
  <path d="M21 19a2 2 0 0 1-2 2h-1a2 2 0 0 1-2-2v-3a2 2 0 0 1 2-2h3zM3 19a2 2 0 0 0 2 2h1a2 2 0 0 0 2-2v-3a2 2 0 0 0-2-2H3z" stroke="url(#headphones-anim-gradient)" stroke-width="1.5" stroke-linecap="round" stroke-linejoin="round" fill="url(#headphones-anim-gradient)" opacity="0.2">
    <animate attributeName="opacity" values="0.2;0.4;0.2" dur="2s" repeatCount="indefinite"/>
  </path>
</svg>
