<svg viewBox="0 0 24 24" width="24" height="24" fill="none" xmlns="http://www.w3.org/2000/svg">
  <defs>
    <linearGradient id="fingerprint-anim-gradient" x1="0%" y1="0%" x2="100%" y2="100%">
      <stop offset="0%" style="stop-color:#667eea;stop-opacity:1" />
      <stop offset="100%" style="stop-color:#764ba2;stop-opacity:1" />
    </linearGradient>
  </defs>
  <path d="M2 12C2 6.5 6.5 2 12 2a10 10 0 0 1 8 4" stroke="url(#fingerprint-anim-gradient)" stroke-width="1.5" stroke-linecap="round">
    <animate attributeName="stroke-dasharray" values="0 30;30 0" dur="3s" repeatCount="indefinite" begin="0s"/>
  </path>
  <path d="M5 19.5C5.5 18 6 15 6 12c0-.7.12-1.37.34-2" stroke="url(#fingerprint-anim-gradient)" stroke-width="1.5" stroke-linecap="round">
    <animate attributeName="stroke-dasharray" values="0 20;20 0" dur="3s" repeatCount="indefinite" begin="0.3s"/>
  </path>
  <path d="M17.29 21c.37-.74.71-1.84.71-3 0-2.5-2-5-2-5" stroke="url(#fingerprint-anim-gradient)" stroke-width="1.5" stroke-linecap="round">
    <animate attributeName="stroke-dasharray" values="0 20;20 0" dur="3s" repeatCount="indefinite" begin="0.6s"/>
  </path>
  <path d="M12 10a2 2 0 0 0-2 2c0 1.02-.1 2.51-.26 4" stroke="url(#fingerprint-anim-gradient)" stroke-width="1.5" stroke-linecap="round">
    <animate attributeName="stroke-dasharray" values="0 15;15 0" dur="3s" repeatCount="indefinite" begin="0.9s"/>
  </path>
  <path d="M8.65 22c.21-.66.45-1.32.57-2 .1-.5.13-1 .13-1.5 0-1.06.18-2.5.5-3.5" stroke="url(#fingerprint-anim-gradient)" stroke-width="1.5" stroke-linecap="round">
    <animate attributeName="stroke-dasharray" values="0 25;25 0" dur="3s" repeatCount="indefinite" begin="1.2s"/>
  </path>
</svg>
