<svg viewBox="0 0 24 24" width="24" height="24" fill="none" stroke="currentColor" stroke-width="1.5" stroke-linecap="round" stroke-linejoin="round" xmlns="http://www.w3.org/2000/svg">
  <path d="M2 12C2 6.5 6.5 2 12 2a10 10 0 0 1 8 4"/>
  <path d="M5 19.5C5.5 18 6 15 6 12c0-.7.12-1.37.34-2"/>
  <path d="M17.29 21c.37-.74.71-1.84.71-3 0-2.5-2-5-2-5"/>
  <path d="M12 10a2 2 0 0 0-2 2c0 1.02-.1 2.51-.26 4"/>
  <path d="M8.65 22c.21-.66.45-1.32.57-2 .1-.5.13-1 .13-1.5 0-1.06.18-2.5.5-3.5"/>
  <line x1="2" y1="8" x2="22" y2="8" stroke-width="3" opacity="0.5">
    <animate attributeName="y1" values="2;22;2" dur="3s" repeatCount="indefinite"/>
    <animate attributeName="y2" values="2;22;2" dur="3s" repeatCount="indefinite"/>
    <animate attributeName="opacity" values="0.7;0.3;0.7" dur="3s" repeatCount="indefinite"/>
  </line>
</svg>
