<svg viewBox="0 0 24 24" width="24" height="24" fill="url(#grad-filled-fireplace)" stroke="none" xmlns="http://www.w3.org/2000/svg">
  <defs>
    <linearGradient id="grad-filled-fireplace" x1="0%" y1="0%" x2="100%" y2="100%">
      <stop offset="0%" style="stop-color:#10b981;stop-opacity:1"/>
      <stop offset="100%" style="stop-color:#06b6d4;stop-opacity:1"/>
    </linearGradient>
  </defs>
  <path d="M2 22h20"/>
  <path d="M6 18v4"/>
  <path d="M10 18v4"/>
  <path d="M14 18v4"/>
  <path d="M18 18v4"/>
  <path d="M2 18h20"/>
  <path d="M12 8c-.9 0-2-.5-3-1.5C7 5 6 3 6 2c0 0 2 2 4 2 1 0 2-.5 2.5-1.5.5 1 1.5 1.5 2.5 1.5 2 0 4-2 4-2 0 1-1 3-3 4.5-1 .5-2 1-3 1Z"/>
  <path d="M12 18c1.66 0 3-1.79 3-4s-1.34-4-3-4-3 1.79-3 4 1.34 4 3 4Z"/>
</svg>
