<svg viewBox="0 0 24 24" width="24" height="24" fill="url(#grad-filled-sofa)" stroke="none" xmlns="http://www.w3.org/2000/svg">
  <defs>
    <linearGradient id="grad-filled-sofa" x1="0%" y1="0%" x2="100%" y2="100%">
      <stop offset="0%" style="stop-color:#10b981;stop-opacity:1"/>
      <stop offset="100%" style="stop-color:#06b6d4;stop-opacity:1"/>
    </linearGradient>
  </defs>
  <path d="M20 9V6a2 2 0 0 0-2-2H6a2 2 0 0 0-2 2v3"/>
  <path d="M2 11v5a2 2 0 0 0 2 2h16a2 2 0 0 0 2-2v-5a2 2 0 0 0-4 0v2H6v-2a2 2 0 0 0-4 0z"/>
  <path d="M4 18v2"/>
  <path d="M20 18v2"/>
  <path d="M12 4v9"/>
</svg>
