<svg viewBox="0 0 24 24" width="24" height="24" fill="url(#grad-filled-turtle)" stroke="none" xmlns="http://www.w3.org/2000/svg">
  <defs>
    <linearGradient id="grad-filled-turtle" x1="0%" y1="0%" x2="100%" y2="100%">
      <stop offset="0%" style="stop-color:#10b981;stop-opacity:1"/>
      <stop offset="100%" style="stop-color:#06b6d4;stop-opacity:1"/>
    </linearGradient>
  </defs>
  <path d="M12 16c-4 0-8-1-8-4 0-2 2-4 5-5 1-.5 2-.8 3-.8s2 .3 3 .8c3 1 5 3 5 5 0 3-4 4-8 4Z"/>
  <path d="M4 12c0 2.5 3 4.5 8 4.5s8-2 8-4.5"/>
  <path d="M6 14v4"/>
  <path d="M9 15v4"/>
  <path d="M15 15v4"/>
  <path d="M18 14v4"/>
  <circle cx="12" cy="9" r="2"/>
</svg>
