<svg viewBox="0 0 24 24" width="24" height="24" fill="none" stroke="url(#grad-arctic)" stroke-width="1.5" stroke-linecap="round" stroke-linejoin="round" xmlns="http://www.w3.org/2000/svg">
  <defs>
    <linearGradient id="grad-arctic" x1="0%" y1="0%" x2="100%" y2="100%">
      <stop offset="0%" style="stop-color:#3b82f6;stop-opacity:1"/>
      <stop offset="100%" style="stop-color:#8b5cf6;stop-opacity:1"/>
    </linearGradient>
  </defs>
  <path d="M12 2l2 4 4 2-4 2-2 4-2-4-4-2 4-2 2-4z"/>
  <path d="M6 14l1 2 2 1-2 1-1 2-1-2-2-1 2-1 1-2z"/>
  <path d="M18 14l1 2 2 1-2 1-1 2-1-2-2-1 2-1 1-2z"/>
  <circle cx="12" cy="12" r="1.5"/>
</svg>
