<svg viewBox="0 0 24 24" width="24" height="24" fill="url(#grad-filled-carrot)" stroke="none" xmlns="http://www.w3.org/2000/svg">
  <defs>
    <linearGradient id="grad-filled-carrot" x1="0%" y1="0%" x2="100%" y2="100%">
      <stop offset="0%" style="stop-color:#10b981;stop-opacity:1"/>
      <stop offset="100%" style="stop-color:#06b6d4;stop-opacity:1"/>
    </linearGradient>
  </defs>
  <style>
    @keyframes iconPulse { 0%, 100% { opacity: 1; } 50% { opacity: 0.6; } }
    path, circle, rect, ellipse, polygon { animation: iconPulse 2s ease-in-out infinite; }
  </style>
  <path d="m2.27 21.7 9.9-9.9"/>
  <path d="M6.5 11.5 4 9"/>
  <path d="m8.5 13.5-3-3"/>
  <path d="m10.5 15.5-3-3"/>
  <path d="M17 3 9 5l1.73 1.73a3 3 0 0 0 0 4.24L12 12.24a3 3 0 0 0 4.24 0L18 10.5a9 9 0 1 1-9 9l1.27-1.27a3 3 0 0 0 0-4.24L9 12.73A3 3 0 0 0 4.76 12L3 10.5Z"/>
  <path d="m21 3-3 2.5"/>
</svg>
