<svg viewBox="0 0 24 24" width="24" height="24" fill="currentColor" stroke="none" xmlns="http://www.w3.org/2000/svg">
  <style>
    @keyframes iconPulse { 0%, 100% { opacity: 1; } 50% { opacity: 0.6; } }
    path, circle, rect, ellipse, polygon { animation: iconPulse 2s ease-in-out infinite; }
  </style>
  <path d="M18 11V6a2 2 0 0 0-2-2v0a2 2 0 0 0-2 2v0"/>
  <path d="M14 10V4a2 2 0 0 0-2-2v0a2 2 0 0 0-2 2v2"/>
  <path d="M10 10.5V6a2 2 0 0 0-2-2v0a2 2 0 0 0-2 2v8"/>
  <path d="M18 8a2 2 0 1 1 4 0v6a8 8 0 0 1-8 8h-2c-2.8 0-4.5-.86-5.99-2.34l-3.6-3.6a2 2 0 0 1 2.83-2.82L7 15"/>
</svg>
