<svg viewBox="0 0 24 24" width="24" height="24" fill="none" stroke="currentColor" stroke-width="1" stroke-linecap="round" stroke-linejoin="round" xmlns="http://www.w3.org/2000/svg">
  <path <animate attributeName="opacity" values="1;0.6;1" dur="2s" repeatCount="indefinite"/> d="m20 7 1.3-1.3a1 1 0 0 0 0-1.4l-1.6-1.6a1 1 0 0 0-1.4 0L17 4v3Z"/>
  <path <animate attributeName="opacity" values="1;0.6;1" dur="2s" repeatCount="indefinite"/> d="m17 7-5.1 5.1"/>
  <circle <animate attributeName="opacity" values="0.6;1;0.6" dur="2s" repeatCount="indefinite"/> cx="11.5" cy="12.5" r=".5"/>
  <path <animate attributeName="opacity" values="1;0.6;1" dur="2s" repeatCount="indefinite"/> d="M6 12a2 2 0 0 0 1.8 2 2 2 0 0 0 1.8-2 2 2 0 0 1 1.8-2 2 2 0 0 1 1.8 2"/>
  <path <animate attributeName="opacity" values="1;0.6;1" dur="2s" repeatCount="indefinite"/> d="M6 12v6a2 2 0 0 1-2 2H2v-2a4 4 0 0 1 4-4Z"/>
</svg>
