<svg viewBox="0 0 24 24" width="24" height="24" fill="none" stroke="url(#grad-apple)" stroke-width="1.5" stroke-linecap="round" stroke-linejoin="round" xmlns="http://www.w3.org/2000/svg">
  <defs>
    <linearGradient id="grad-apple" x1="0%" y1="0%" x2="100%" y2="100%">
      <stop offset="0%" style="stop-color:#6366f1;stop-opacity:1"/>
      <stop offset="100%" style="stop-color:#8b5cf6;stop-opacity:1"/>
    </linearGradient>
  </defs>
  <path <animate attributeName="opacity" values="1;0.6;1" dur="2s" repeatCount="indefinite" d="M12 20.94c1.5 0 2.75 1.06 4 1.06 3 0 6-8 6-12.22A4.91 4.91 0 0 0 17 5c-2.22 0-4 1.44-5 2-1-.56-2.78-2-5-2a4.9 4.9 0 0 0-5 4.78C2 14 5 22 8 22c1.25 0 2.5-1.06 4-1.06Z"/>
  <path <animate attributeName="opacity" values="1;0.6;1" dur="2s" repeatCount="indefinite" d="M10 2c1 .5 2 2 2 5"/>
</svg>
