<svg viewBox="0 0 24 24" width="24" height="24" fill="none" xmlns="http://www.w3.org/2000/svg">
  <defs>
    <linearGradient id="grad-gesture-control" x1="0%" y1="0%" x2="100%" y2="100%">
      <stop offset="0%" style="stop-color:#3b82f6;stop-opacity:1"/>
      <stop offset="100%" style="stop-color:#8b5cf6;stop-opacity:1"/>
    </linearGradient>
  </defs>
  <path d="M9 18V7a2 2 0 0 1 4 0v11" stroke="url(#grad-gesture-control)" stroke-width="1.5" stroke-linecap="round" stroke-linejoin="round"/>
  <path d="M13 16V5a2 2 0 0 1 4 0v11" stroke="url(#grad-gesture-control)" stroke-width="1.5" stroke-linecap="round" stroke-linejoin="round"/>
  <path d="M17 16v-4a2 2 0 0 1 4 0v6a5 5 0 0 1-5 5h-5a5 5 0 0 1-5-5v-2" stroke="url(#grad-gesture-control)" stroke-width="1.5" stroke-linecap="round" stroke-linejoin="round"/>
  <path d="M5 14V9a2 2 0 0 1 4 0v5" stroke="url(#grad-gesture-control)" stroke-width="1.5" stroke-linecap="round" stroke-linejoin="round"/>
  <path d="M2 4l2 2 2-2" stroke="url(#grad-gesture-control)" stroke-width="1.5" stroke-linecap="round" stroke-linejoin="round"/>
</svg>
