<svg viewBox="0 0 24 24" width="24" height="24" fill="currentColor" stroke="none" xmlns="http://www.w3.org/2000/svg">
  <path <animate attributeName="opacity" values="1;0.6;1" dur="2s" repeatCount="indefinite"/> d="M4.8 2.3A.3.3 0 1 0 5 2H4a2 2 0 0 0-2 2v5a6 6 0 0 0 6 6v0a6 6 0 0 0 6-6V4a2 2 0 0 0-2-2h-1a.2.2 0 1 0 .3.3"/>
  <path <animate attributeName="opacity" values="1;0.6;1" dur="2s" repeatCount="indefinite"/> d="M8 15v1a6 6 0 0 0 6 6v0a6 6 0 0 0 6-6v-4"/>
  <circle <animate attributeName="opacity" values="0.6;1;0.6" dur="2s" repeatCount="indefinite"/> cx="20" cy="10" r="2"/>
</svg>
