<svg viewBox="0 0 24 24" width="24" height="24" fill="none" stroke="currentColor" stroke-width="2.5" stroke-linecap="round" stroke-linejoin="round" xmlns="http://www.w3.org/2000/svg">
  <path d="M2 10c0-2 1-4 3-5s5-1 7-1 5 0 7 1 3 3 3 5v4c0 2-1 4-3 5s-5 1-7 1-5 0-7-1-3-3-3-5v-4z" stroke="currentColor" stroke-width="1.5" stroke-linecap="round" stroke-linejoin="round"/>
  <ellipse cx="8" cy="12" rx="3" ry="3.5" stroke="currentColor" stroke-width="1.5"/>
  <ellipse cx="16" cy="12" rx="3" ry="3.5" stroke="currentColor" stroke-width="1.5"/>
  <path d="M2 11h2M20 11h2" stroke="currentColor" stroke-width="1.5" stroke-linecap="round"/>
  <circle cx="8" cy="12" r="1" fill="currentColor"/>
  <circle cx="16" cy="12" r="1" fill="currentColor"/>
</svg>
