<svg viewBox="0 0 24 24" width="24" height="24" fill="none" stroke="currentColor" stroke-width="2.5" stroke-linecap="round" stroke-linejoin="round" xmlns="http://www.w3.org/2000/svg">
  <style>
    @keyframes iconPulse { 0%, 100% { opacity: 1; } 50% { opacity: 0.6; } }
    path, circle, rect, ellipse, polygon { animation: iconPulse 2s ease-in-out infinite; }
  </style>
  <path d="M12 2C6.5 2 4 6 4 10c0 2 .5 3 1 3.5-.5.5-1 1-1 2 0 1.5 1.5 2 3 2.5 0 .5-.5 2 2 3 2 .8 4 .8 6 0 2.5-1 2-2.5 2-3 1.5-.5 3-1 3-2.5 0-1-.5-1.5-1-2 .5-.5 1-1.5 1-3.5 0-4-2.5-8-8-8Z"/>
</svg>
