<svg viewBox="0 0 24 24" width="24" height="24" fill="none" xmlns="http://www.w3.org/2000/svg">
  <defs>
    <linearGradient id="grad-animated-gradient-coffee-anim" x1="0%" y1="0%" x2="100%" y2="100%">
      <stop offset="0%" style="stop-color:#3b82f6;stop-opacity:1">
        <animate attributeName="stop-color" values="#3b82f6;#8b5cf6;#3b82f6" dur="3s" repeatCount="indefinite"/>
      </stop>
      <stop offset="100%" style="stop-color:#8b5cf6;stop-opacity:1">
        <animate attributeName="stop-color" values="#8b5cf6;#3b82f6;#8b5cf6" dur="3s" repeatCount="indefinite"/>
      </stop>
    </linearGradient>
  </defs>
  <defs>
    <linearGradient id="coffee-anim-gradient" x1="0%" y1="0%" x2="100%" y2="100%">
      <stop offset="0%" style="stop-color:#78350f;stop-opacity:1" />
      <stop offset="100%" style="stop-color:#a16207;stop-opacity:1" />
    </linearGradient>
  </defs>
  <path d="M5 8h12l-1 8c0 2-1 3-3 3H9c-2 0-3-1-3-3L5 8z" stroke="url(#coffee-anim-gradient)" stroke-width="1.5" stroke-linejoin="round" fill="url(#coffee-anim-gradient)" opacity="0.2">
    <animate attributeName="opacity" values="0.2;0.3;0.2" dur="3s" repeatCount="indefinite"/>
  </path>
  <path d="M17 11h1c1 0 2 1 2 2s-1 2-2 2h-1" stroke="url(#coffee-anim-gradient)" stroke-width="1.5" stroke-linecap="round"/>
  <path d="M8 5c0-1 1-2 2-2M12 5c0-1 1-2 2-2" stroke="url(#coffee-anim-gradient)" stroke-width="1.5" stroke-linecap="round">
    <animate attributeName="opacity" values="0.5;1;0.5" dur="2s" repeatCount="indefinite"/>
  </path>
</svg>
