<svg viewBox="0 0 24 24" width="24" height="24" fill="none" xmlns="http://www.w3.org/2000/svg">
  <defs>
    <linearGradient id="grad-animated-gradient-edge-anim" x1="0%" y1="0%" x2="100%" y2="100%">
      <stop offset="0%" style="stop-color:#3b82f6;stop-opacity:1">
        <animate attributeName="stop-color" values="#3b82f6;#8b5cf6;#3b82f6" dur="3s" repeatCount="indefinite"/>
      </stop>
      <stop offset="100%" style="stop-color:#8b5cf6;stop-opacity:1">
        <animate attributeName="stop-color" values="#8b5cf6;#3b82f6;#8b5cf6" dur="3s" repeatCount="indefinite"/>
      </stop>
    </linearGradient>
  </defs>
  <defs>
    <linearGradient id="edge-anim-gradient" x1="0%" y1="0%" x2="100%" y2="100%">
      <stop offset="0%" style="stop-color:#0078d7;stop-opacity:1" />
      <stop offset="100%" style="stop-color:#00bcf2;stop-opacity:1" />
    </linearGradient>
  </defs>
  <path d="M3 12c0-5 4-9 9-9 3.5 0 6.5 2 8 5" stroke="url(#edge-anim-gradient)" stroke-width="1.5" stroke-linecap="round" fill="url(#edge-anim-gradient)" opacity="0.2">
    <animate attributeName="opacity" values="0.2;0.4;0.2" dur="3s" repeatCount="indefinite"/>
  </path>
  <path d="M21 12c0 5-4 9-9 9-3.5 0-6.5-2-8-5" stroke="url(#edge-anim-gradient)" stroke-width="1.5" stroke-linecap="round">
    <animate attributeName="stroke-dasharray" values="0 30;30 0" dur="3s" repeatCount="indefinite"/>
    <animate attributeName="opacity" values="0.5;1;0.5" dur="3s" repeatCount="indefinite"/>
  </path>
  <path d="M12 3v18M3 12h18" stroke="url(#edge-anim-gradient)" stroke-width="1.5" stroke-linecap="round">
    <animate attributeName="opacity" values="0.5;1;0.5" dur="2s" repeatCount="indefinite"/>
  </path>
  <path d="M7 7a9 9 0 0 1 10 0M7 17a9 9 0 0 0 10 0" stroke="url(#edge-anim-gradient)" stroke-width="1.5" stroke-linecap="round">
    <animate attributeName="opacity" values="0.5;1;0.5" dur="2s" repeatCount="indefinite" begin="0.5s"/>
  </path>
</svg>
