<svg viewBox="0 0 24 24" width="24" height="24" fill="none" xmlns="http://www.w3.org/2000/svg">
  <defs>
    <linearGradient id="grad-animated-gradient-github-anim" x1="0%" y1="0%" x2="100%" y2="100%">
      <stop offset="0%" style="stop-color:#3b82f6;stop-opacity:1">
        <animate attributeName="stop-color" values="#3b82f6;#8b5cf6;#3b82f6" dur="3s" repeatCount="indefinite"/>
      </stop>
      <stop offset="100%" style="stop-color:#8b5cf6;stop-opacity:1">
        <animate attributeName="stop-color" values="#8b5cf6;#3b82f6;#8b5cf6" dur="3s" repeatCount="indefinite"/>
      </stop>
    </linearGradient>
  </defs>
  <defs>
    <linearGradient id="github-anim-gradient" x1="0%" y1="0%" x2="100%" y2="100%">
      <stop offset="0%" style="stop-color:#24292e;stop-opacity:1" />
      <stop offset="100%" style="stop-color:#586069;stop-opacity:1" />
    </linearGradient>
  </defs>
  <path d="M12 3a9 9 0 0 0-9 9c0 4 2.6 7.4 6.2 8.6.5.1.7-.2.7-.5v-1.7c-2.5.5-3-1.2-3-1.2-.4-1.1-1-1.4-1-1.4-.8-.6.1-.6.1-.6.9.1 1.4.9 1.4.9.8 1.4 2.1 1 2.6.8.1-.6.3-1 .6-1.2-2-.2-4.1-1-4.1-4.5 0-1 .4-1.8 1-2.5-.1-.2-.4-1.2.1-2.5 0 0 .8-.3 2.7 1 .8-.2 1.6-.3 2.4-.3s1.6.1 2.4.3c1.9-1.3 2.7-1 2.7-1 .5 1.3.2 2.3.1 2.5.6.7 1 1.5 1 2.5 0 3.5-2.1 4.3-4.1 4.5.3.3.6.8.6 1.6v2.4c0 .3.2.6.7.5 3.6-1.2 6.2-4.6 6.2-8.6a9 9 0 0 0-9-9z" stroke="url(#github-anim-gradient)" stroke-width="1.5" fill="url(#github-anim-gradient)" opacity="0.1">
    <animate attributeName="opacity" values="0.1;0.2;0.1" dur="3s" repeatCount="indefinite"/>
  </path>
</svg>
