<svg viewBox="0 0 24 24" width="24" height="24" fill="none" xmlns="http://www.w3.org/2000/svg">
  <defs>
    <linearGradient id="grad-animated-mastodon-anim" x1="0%" y1="0%" x2="100%" y2="100%">
      <stop offset="0%" style="stop-color:#3b82f6;stop-opacity:1">
        <animate attributeName="stop-color" values="#3b82f6;#8b5cf6;#3b82f6" dur="3s" repeatCount="indefinite"/>
      </stop>
      <stop offset="100%" style="stop-color:#8b5cf6;stop-opacity:1">
        <animate attributeName="stop-color" values="#8b5cf6;#3b82f6;#8b5cf6" dur="3s" repeatCount="indefinite"/>
      </stop>
    </linearGradient>
  </defs>
  <path d="M20 11c0-4.4-2.9-5.7-2.9-5.7C15.5 4.5 13 4.2 10.5 4.2h-.1c-2.5 0-5 .3-6.6 1.1 0 0-2.9 1.3-2.9 5.7 0 1 0 2.3.1 3.6.1 2 1.2 4 3.2 4.5 2 .5 4 .6 5.8.5 3.3-.2 5.1-1.3 5.1-1.3l-.1-2.2s-2.3.7-5 .6c-2.6-.1-5.4-.3-5.8-3.7 0-.3 0-.6 0-.9 6.2 1.5 11.4.7 12.8.5 2.5-.3 4.7-1.9 5-3.3.4-2.2.4-5.4.4-5.4z" stroke="url(#grad-animated-mastodon-anim)" stroke-width="1.5" stroke-linejoin="round"/>
  <circle cx="8" cy="10" r="1" fill="url(#grad-animated-mastodon-anim)">
    <animate attributeName="r" values="1;1.5;1" dur="2s" repeatCount="indefinite" begin="0s"/>
  </circle>
  <circle cx="16" cy="10" r="1" fill="url(#grad-animated-mastodon-anim)">
    <animate attributeName="r" values="1;1.5;1" dur="2s" repeatCount="indefinite" begin="0.5s"/>
  </circle>
</svg>
