<svg viewBox="0 0 24 24" width="24" height="24" fill="none" xmlns="http://www.w3.org/2000/svg">
  <defs>
    <linearGradient id="grad-animated-gradient-brain-anim" x1="0%" y1="0%" x2="100%" y2="100%">
      <stop offset="0%" style="stop-color:#3b82f6;stop-opacity:1">
        <animate attributeName="stop-color" values="#3b82f6;#8b5cf6;#3b82f6" dur="3s" repeatCount="indefinite"/>
      </stop>
      <stop offset="100%" style="stop-color:#8b5cf6;stop-opacity:1">
        <animate attributeName="stop-color" values="#8b5cf6;#3b82f6;#8b5cf6" dur="3s" repeatCount="indefinite"/>
      </stop>
    </linearGradient>
  </defs>
  <defs>
    <linearGradient id="brain-anim-gradient" x1="0%" y1="0%" x2="100%" y2="100%">
      <stop offset="0%" style="stop-color:#ec4899;stop-opacity:1" />
      <stop offset="100%" style="stop-color:#8b5cf6;stop-opacity:1" />
    </linearGradient>
  </defs>
  <path d="M9 6c-2 0-3 1-3 3v6c0 2 1 3 3 3h6c2 0 3-1 3-3V9c0-2-1-3-3-3H9z" stroke="url(#brain-anim-gradient)" stroke-width="1.5" stroke-linejoin="round" fill="url(#brain-anim-gradient)" opacity="0.1">
    <animate attributeName="opacity" values="0.1;0.2;0.1" dur="3s" repeatCount="indefinite"/>
  </path>
  <path d="M9 9c1 1 2 1 3 1s2 0 3-1M9 15c1-1 2-1 3-1s2 0 3 1" stroke="url(#brain-anim-gradient)" stroke-width="1.5" stroke-linecap="round">
    <animate attributeName="stroke-dasharray" values="0 15;15 0" dur="3s" repeatCount="indefinite"/>
  </path>
  <circle cx="10" cy="12" r="1" fill="url(#brain-anim-gradient)">
    <animate attributeName="opacity" values="1;0.3;1" dur="2s" repeatCount="indefinite" begin="0s"/>
  </circle>
  <circle cx="14" cy="12" r="1" fill="url(#brain-anim-gradient)">
    <animate attributeName="opacity" values="1;0.3;1" dur="2s" repeatCount="indefinite" begin="0.5s"/>
  </circle>
</svg>
