<svg viewBox="0 0 24 24" width="24" height="24" fill="none" xmlns="http://www.w3.org/2000/svg">
  <defs>
    <linearGradient id="grad-animated-vr-immerse-anim" x1="0%" y1="0%" x2="100%" y2="100%">
      <stop offset="0%" style="stop-color:#3b82f6;stop-opacity:1">
        <animate attributeName="stop-color" values="#3b82f6;#8b5cf6;#3b82f6" dur="3s" repeatCount="indefinite"/>
      </stop>
      <stop offset="100%" style="stop-color:#8b5cf6;stop-opacity:1">
        <animate attributeName="stop-color" values="#8b5cf6;#3b82f6;#8b5cf6" dur="3s" repeatCount="indefinite"/>
      </stop>
    </linearGradient>
  </defs>
  <path d="M2 10c0-2 1-4 3-5s5-1 7-1 5 0 7 1 3 3 3 5v4c0 2-1 4-3 5s-5 1-7 1-5 0-7-1-3-3-3-5v-4z" stroke="url(#grad-animated-vr-immerse-anim)" stroke-width="1.5" stroke-linecap="round" stroke-linejoin="round"/>
  <ellipse cx="8" cy="12" rx="3" ry="3.5" stroke="url(#grad-animated-vr-immerse-anim)" stroke-width="1.5">
    <animate attributeName="rx" values="3;3.5;3" dur="3s" repeatCount="indefinite"/>
  </ellipse>
  <ellipse cx="16" cy="12" rx="3" ry="3.5" stroke="url(#grad-animated-vr-immerse-anim)" stroke-width="1.5">
    <animate attributeName="rx" values="3;3.5;3" dur="3s" repeatCount="indefinite" begin="0.5s"/>
  </ellipse>
  <path d="M2 11h2M20 11h2" stroke="url(#grad-animated-vr-immerse-anim)" stroke-width="1.5" stroke-linecap="round">
    <animate attributeName="opacity" values="0.5;1;0.5" dur="2s" repeatCount="indefinite"/>
  </path>
  <circle cx="8" cy="12" r="1" fill="url(#grad-animated-vr-immerse-anim)">
    <animate attributeName="cy" values="12;11;12;13;12" dur="4s" repeatCount="indefinite"/>
  </circle>
  <circle cx="16" cy="12" r="1" fill="url(#grad-animated-vr-immerse-anim)">
    <animate attributeName="cy" values="12;11;12;13;12" dur="4s" repeatCount="indefinite"/>
  </circle>
</svg>
