<svg viewBox="0 0 24 24" width="24" height="24" fill="none" xmlns="http://www.w3.org/2000/svg">
  <defs>
    <linearGradient id="grad-animated-gradient-gesture-control-anim" x1="0%" y1="0%" x2="100%" y2="100%">
      <stop offset="0%" style="stop-color:#3b82f6;stop-opacity:1">
        <animate attributeName="stop-color" values="#3b82f6;#8b5cf6;#3b82f6" dur="3s" repeatCount="indefinite"/>
      </stop>
      <stop offset="100%" style="stop-color:#8b5cf6;stop-opacity:1">
        <animate attributeName="stop-color" values="#8b5cf6;#3b82f6;#8b5cf6" dur="3s" repeatCount="indefinite"/>
      </stop>
    </linearGradient>
  </defs>
  <defs>
    <linearGradient id="gesture-control-anim-gradient" x1="0%" y1="0%" x2="100%" y2="100%">
      <stop offset="0%" style="stop-color:#fa709a;stop-opacity:1" />
      <stop offset="100%" style="stop-color:#fee140;stop-opacity:1" />
    </linearGradient>
  </defs>
  <path d="M9 18V7a2 2 0 0 1 4 0v11" stroke="url(#gesture-control-anim-gradient)" stroke-width="1.5" stroke-linecap="round" stroke-linejoin="round" fill="url(#gesture-control-anim-gradient)" opacity="0.1">
    <animate attributeName="opacity" values="0.1;0.2;0.1" dur="3s" repeatCount="indefinite" begin="0s"/>
  </path>
  <path d="M13 16V5a2 2 0 0 1 4 0v11" stroke="url(#gesture-control-anim-gradient)" stroke-width="1.5" stroke-linecap="round" stroke-linejoin="round" fill="url(#gesture-control-anim-gradient)" opacity="0.1">
    <animate attributeName="opacity" values="0.1;0.2;0.1" dur="3s" repeatCount="indefinite" begin="0.3s"/>
  </path>
  <path d="M17 16v-4a2 2 0 0 1 4 0v6a5 5 0 0 1-5 5h-5a5 5 0 0 1-5-5v-2" stroke="url(#gesture-control-anim-gradient)" stroke-width="1.5" stroke-linecap="round" stroke-linejoin="round">
    <animate attributeName="opacity" values="0.5;1;0.5" dur="2s" repeatCount="indefinite"/>
  </path>
  <path d="M5 14V9a2 2 0 0 1 4 0v5" stroke="url(#gesture-control-anim-gradient)" stroke-width="1.5" stroke-linecap="round" stroke-linejoin="round">
    <animate attributeName="opacity" values="0.5;1;0.5" dur="2s" repeatCount="indefinite" begin="0.5s"/>
  </path>
  <path d="M2 4l2 2 2-2" stroke="url(#gesture-control-anim-gradient)" stroke-width="1.5" stroke-linecap="round" stroke-linejoin="round">
    <animateTransform attributeName="transform" type="translate" values="0 0;0 -1;0 0" dur="2s" repeatCount="indefinite"/>
  </path>
</svg>
