<svg viewBox="0 0 24 24" width="24" height="24" fill="none" xmlns="http://www.w3.org/2000/svg">
  <defs>
    <linearGradient id="grad-animated-gradient-spatial-scan-anim" x1="0%" y1="0%" x2="100%" y2="100%">
      <stop offset="0%" style="stop-color:#3b82f6;stop-opacity:1">
        <animate attributeName="stop-color" values="#3b82f6;#8b5cf6;#3b82f6" dur="3s" repeatCount="indefinite"/>
      </stop>
      <stop offset="100%" style="stop-color:#8b5cf6;stop-opacity:1">
        <animate attributeName="stop-color" values="#8b5cf6;#3b82f6;#8b5cf6" dur="3s" repeatCount="indefinite"/>
      </stop>
    </linearGradient>
  </defs>
  <defs>
    <linearGradient id="spatial-scan-anim-gradient" x1="0%" y1="0%" x2="100%" y2="100%">
      <stop offset="0%" style="stop-color:#fc466b;stop-opacity:1" />
      <stop offset="100%" style="stop-color:#3f5efb;stop-opacity:1" />
    </linearGradient>
  </defs>
  <path d="M3 8h18a1 1 0 0 1 1 1v6a1 1 0 0 1-1 1H3a1 1 0 0 1-1-1V9a1 1 0 0 1 1-1z" stroke="url(#spatial-scan-anim-gradient)" stroke-width="1.5"/>
  <circle cx="8" cy="12" r="2.5" stroke="url(#spatial-scan-anim-gradient)" stroke-width="1.5">
    <animate attributeName="r" values="2.5;3;2.5" dur="2s" repeatCount="indefinite"/>
  </circle>
  <circle cx="16" cy="12" r="2.5" stroke="url(#spatial-scan-anim-gradient)" stroke-width="1.5">
    <animate attributeName="r" values="2.5;3;2.5" dur="2s" repeatCount="indefinite" begin="0.5s"/>
  </circle>
  <line x1="11" y1="8" x2="13" y2="8" stroke="url(#spatial-scan-anim-gradient)" stroke-width="1.5" stroke-linecap="round">
    <animate attributeName="opacity" values="0.3;1;0.3" dur="1.5s" repeatCount="indefinite"/>
  </line>
  <path d="M2 10l-1 2 1 2M22 10l1 2-1 2" stroke="url(#spatial-scan-anim-gradient)" stroke-width="1.5" stroke-linecap="round" stroke-linejoin="round">
    <animate attributeName="opacity" values="0.5;1;0.5" dur="2s" repeatCount="indefinite"/>
  </path>
</svg>
