<svg viewBox="0 0 24 24" width="24" height="24" fill="none" xmlns="http://www.w3.org/2000/svg">
  <defs>
    <linearGradient id="grad-animated-gradient-brain-chip-anim" x1="0%" y1="0%" x2="100%" y2="100%">
      <stop offset="0%" style="stop-color:#3b82f6;stop-opacity:1">
        <animate attributeName="stop-color" values="#3b82f6;#8b5cf6;#3b82f6" dur="3s" repeatCount="indefinite"/>
      </stop>
      <stop offset="100%" style="stop-color:#8b5cf6;stop-opacity:1">
        <animate attributeName="stop-color" values="#8b5cf6;#3b82f6;#8b5cf6" dur="3s" repeatCount="indefinite"/>
      </stop>
    </linearGradient>
  </defs>
  <defs>
    <linearGradient id="brain-chip-anim-gradient" x1="0%" y1="0%" x2="100%" y2="100%">
      <stop offset="0%" style="stop-color:#8e2de2;stop-opacity:1" />
      <stop offset="50%" style="stop-color:#4a00e0;stop-opacity:1" />
      <stop offset="100%" style="stop-color:#f093fb;stop-opacity:1" />
    </linearGradient>
  </defs>
  <path d="M9.5 2C8 3.5 7 5.5 7 8s1 4.5 2.5 6c1.5 1.5 3.5 2.5 6 2.5s4.5-1 6-2.5" stroke="url(#brain-chip-anim-gradient)" stroke-width="1.5" stroke-linecap="round" fill="url(#brain-chip-anim-gradient)" opacity="0.1">
    <animate attributeName="opacity" values="0.1;0.3;0.1" dur="3s" repeatCount="indefinite" begin="0s"/>
  </path>
  <path d="M14.5 22C16 20.5 17 18.5 17 16s-1-4.5-2.5-6c-1.5-1.5-3.5-2.5-6-2.5s-4.5 1-6 2.5" stroke="url(#brain-chip-anim-gradient)" stroke-width="1.5" stroke-linecap="round" fill="url(#brain-chip-anim-gradient)" opacity="0.1">
    <animate attributeName="opacity" values="0.1;0.3;0.1" dur="3s" repeatCount="indefinite" begin="1s"/>
  </path>
  <rect x="10" y="10" width="4" height="4" rx="0.5" stroke="url(#brain-chip-anim-gradient)" stroke-width="1.5">
    <animate attributeName="opacity" values="0.5;1;0.5" dur="2s" repeatCount="indefinite"/>
  </rect>
  <line x1="12" y1="8" x2="12" y2="10" stroke="url(#brain-chip-anim-gradient)" stroke-width="1.5">
    <animate attributeName="opacity" values="0.3;1;0.3" dur="2s" repeatCount="indefinite" begin="0s"/>
  </line>
  <line x1="12" y1="14" x2="12" y2="16" stroke="url(#brain-chip-anim-gradient)" stroke-width="1.5">
    <animate attributeName="opacity" values="0.3;1;0.3" dur="2s" repeatCount="indefinite" begin="0.5s"/>
  </line>
  <line x1="8" y1="12" x2="10" y2="12" stroke="url(#brain-chip-anim-gradient)" stroke-width="1.5">
    <animate attributeName="opacity" values="0.3;1;0.3" dur="2s" repeatCount="indefinite" begin="1s"/>
  </line>
  <line x1="14" y1="12" x2="16" y2="12" stroke="url(#brain-chip-anim-gradient)" stroke-width="1.5">
    <animate attributeName="opacity" values="0.3;1;0.3" dur="2s" repeatCount="indefinite" begin="1.5s"/>
  </line>
</svg>
