<svg viewBox="0 0 24 24" width="24" height="24" fill="none" xmlns="http://www.w3.org/2000/svg">
  <defs>
    <linearGradient id="grad-animated-gradient-python-anim" x1="0%" y1="0%" x2="100%" y2="100%">
      <stop offset="0%" style="stop-color:#3b82f6;stop-opacity:1">
        <animate attributeName="stop-color" values="#3b82f6;#8b5cf6;#3b82f6" dur="3s" repeatCount="indefinite"/>
      </stop>
      <stop offset="100%" style="stop-color:#8b5cf6;stop-opacity:1">
        <animate attributeName="stop-color" values="#8b5cf6;#3b82f6;#8b5cf6" dur="3s" repeatCount="indefinite"/>
      </stop>
    </linearGradient>
  </defs>
  <defs>
    <linearGradient id="python-anim-gradient" x1="0%" y1="0%" x2="100%" y2="100%">
      <stop offset="0%" style="stop-color:#3776ab;stop-opacity:1" />
      <stop offset="100%" style="stop-color:#ffd343;stop-opacity:1" />
    </linearGradient>
  </defs>
  <path d="M9 3h6c2 0 3 1 3 3v4h-6v1h7c2 0 3 1 3 3v4c0 2-1 3-3 3h-6c-2 0-3-1-3-3v-4h6v-1H6c-2 0-3-1-3-3V6c0-2 1-3 3-3h3z" stroke="url(#python-anim-gradient)" stroke-width="1.5" fill="url(#python-anim-gradient)" opacity="0.1">
    <animate attributeName="opacity" values="0.1;0.2;0.1" dur="3s" repeatCount="indefinite"/>
  </path>
  <circle cx="8" cy="6" r="1" fill="url(#python-anim-gradient)">
    <animate attributeName="opacity" values="0.5;1;0.5" dur="2s" repeatCount="indefinite" begin="0s"/>
  </circle>
  <circle cx="16" cy="18" r="1" fill="url(#python-anim-gradient)">
    <animate attributeName="opacity" values="0.5;1;0.5" dur="2s" repeatCount="indefinite" begin="1s"/>
  </circle>
</svg>
