<svg viewBox="0 0 24 24" width="24" height="24" fill="none" xmlns="http://www.w3.org/2000/svg">
  <defs>
    <linearGradient id="grad-animated-gradient-vision-pro-anim" x1="0%" y1="0%" x2="100%" y2="100%">
      <stop offset="0%" style="stop-color:#3b82f6;stop-opacity:1">
        <animate attributeName="stop-color" values="#3b82f6;#8b5cf6;#3b82f6" dur="3s" repeatCount="indefinite"/>
      </stop>
      <stop offset="100%" style="stop-color:#8b5cf6;stop-opacity:1">
        <animate attributeName="stop-color" values="#8b5cf6;#3b82f6;#8b5cf6" dur="3s" repeatCount="indefinite"/>
      </stop>
    </linearGradient>
  </defs>
  <defs>
    <linearGradient id="vision-pro-anim-gradient" x1="0%" y1="0%" x2="100%" y2="100%">
      <stop offset="0%" style="stop-color:#00c6ff;stop-opacity:1" />
      <stop offset="100%" style="stop-color:#0072ff;stop-opacity:1" />
    </linearGradient>
  </defs>
  <path d="M2 10c0-2 1-4 3-5s5-1 7-1 5 0 7 1 3 3 3 5v4c0 2-1 4-3 5s-5 1-7 1-5 0-7-1-3-3-3-5v-4z" stroke="url(#vision-pro-anim-gradient)" stroke-width="1.5" fill="url(#vision-pro-anim-gradient)" opacity="0.2">
    <animate attributeName="opacity" values="0.2;0.3;0.2" dur="3s" repeatCount="indefinite"/>
  </path>
  <ellipse cx="8" cy="12" rx="3" ry="3.5" stroke="url(#vision-pro-anim-gradient)" stroke-width="1.5">
    <animate attributeName="opacity" values="0.6;1;0.6" dur="2s" repeatCount="indefinite" begin="0s"/>
  </ellipse>
  <ellipse cx="16" cy="12" rx="3" ry="3.5" stroke="url(#vision-pro-anim-gradient)" stroke-width="1.5">
    <animate attributeName="opacity" values="0.6;1;0.6" dur="2s" repeatCount="indefinite" begin="0.3s"/>
  </ellipse>
  <path d="M2 11h2M20 11h2" stroke="url(#vision-pro-anim-gradient)" stroke-width="1.5" stroke-linecap="round">
    <animate attributeName="stroke-dasharray" values="0 2;2 0" dur="1.5s" repeatCount="indefinite"/>
  </path>
  <circle cx="8" cy="12" r="1" fill="url(#vision-pro-anim-gradient)">
    <animate attributeName="opacity" values="0.7;1;0.7" dur="1.5s" repeatCount="indefinite"/>
  </circle>
  <circle cx="16" cy="12" r="1" fill="url(#vision-pro-anim-gradient)">
    <animate attributeName="opacity" values="0.7;1;0.7" dur="1.5s" repeatCount="indefinite" begin="0.3s"/>
  </circle>
</svg>
