<svg viewBox="0 0 24 24" width="24" height="24" fill="none" stroke="url(#grad-phone-ringing-anim)" stroke-width="1.5" stroke-linecap="round" stroke-linejoin="round" xmlns="http://www.w3.org/2000/svg">
  <defs>
    <linearGradient id="grad-phone-ringing-anim" x1="0%" y1="0%" x2="100%" y2="100%">
      <stop offset="0%" style="stop-color:#3b82f6;stop-opacity:1">
        <animate attributeName="stop-color" values="#3b82f6;#8b5cf6;#3b82f6" dur="3s" repeatCount="indefinite"/>
      </stop>
      <stop offset="100%" style="stop-color:#8b5cf6;stop-opacity:1">
        <animate attributeName="stop-color" values="#8b5cf6;#3b82f6;#8b5cf6" dur="3s" repeatCount="indefinite"/>
      </stop>
    </linearGradient>
  </defs>
  <path d="M22 16.92v3a2 2 0 0 1-2.18 2 19.79 19.79 0 0 1-8.63-3.07 19.5 19.5 0 0 1-6-6 19.79 19.79 0 0 1-3.07-8.67A2 2 0 0 1 4.11 2h3a2 2 0 0 1 2 1.72 12.84 12.84 0 0 0 .7 2.81 2 2 0 0 1-.45 2.11L8.09 9.91a16 16 0 0 0 6 6l1.27-1.27a2 2 0 0 1 2.11-.45 12.84 12.84 0 0 0 2.81.7A2 2 0 0 1 22 16.92z">
    <animateTransform attributeName="transform" type="rotate" values="0 12 12;-10 12 12;10 12 12;-10 12 12;0 12 12" dur="1s" repeatCount="indefinite"/>
  </path>
  <path d="M14.05 2a9 9 0 0 1 8 7.94" opacity="0.5">
    <animate attributeName="opacity" values="0.5;1;0.5" dur="1s" repeatCount="indefinite"/>
  </path>
  <path d="M14.05 6A5 5 0 0 1 18 10" opacity="0.5">
    <animate attributeName="opacity" values="0.5;1;0.5" dur="1s" repeatCount="indefinite" begin="0.2s"/>
  </path>
</svg>
