<svg viewBox="0 0 24 24" width="24" height="24" fill="none" stroke="url(#grad-printer-printing-anim)" stroke-width="1.5" stroke-linecap="round" stroke-linejoin="round" xmlns="http://www.w3.org/2000/svg">
  <defs>
    <linearGradient id="grad-printer-printing-anim" x1="0%" y1="0%" x2="100%" y2="100%">
      <stop offset="0%" style="stop-color:#3b82f6;stop-opacity:1">
        <animate attributeName="stop-color" values="#3b82f6;#8b5cf6;#3b82f6" dur="3s" repeatCount="indefinite"/>
      </stop>
      <stop offset="100%" style="stop-color:#8b5cf6;stop-opacity:1">
        <animate attributeName="stop-color" values="#8b5cf6;#3b82f6;#8b5cf6" dur="3s" repeatCount="indefinite"/>
      </stop>
    </linearGradient>
  </defs>
  <polyline points="6 9 6 2 18 2 18 9"/>
  <path d="M6 18H4a2 2 0 0 1-2-2v-5a2 2 0 0 1 2-2h16a2 2 0 0 1 2 2v5a2 2 0 0 1-2 2h-2"/>
  <rect x="6" y="14" width="12" height="8">
    <animateTransform attributeName="transform" type="translate" values="0,0;0,2;0,2;0,2" dur="2s" repeatCount="indefinite"/>
  </rect>
  <line x1="8" y1="17" x2="16" y2="17" opacity="0">
    <animate attributeName="opacity" values="0;1;1;1" dur="2s" repeatCount="indefinite"/>
  </line>
  <line x1="8" y1="20" x2="16" y2="20" opacity="0">
    <animate attributeName="opacity" values="0;0;1;1" dur="2s" repeatCount="indefinite"/>
  </line>
</svg>
