<svg viewBox="0 0 24 24" width="24" height="24" fill="none" stroke="url(#grad-rocket-launch-anim)" stroke-width="1.5" stroke-linecap="round" stroke-linejoin="round" xmlns="http://www.w3.org/2000/svg">
  <defs>
    <linearGradient id="grad-rocket-launch-anim" x1="0%" y1="0%" x2="100%" y2="100%">
      <stop offset="0%" style="stop-color:#3b82f6;stop-opacity:1">
        <animate attributeName="stop-color" values="#3b82f6;#8b5cf6;#3b82f6" dur="3s" repeatCount="indefinite"/>
      </stop>
      <stop offset="100%" style="stop-color:#8b5cf6;stop-opacity:1">
        <animate attributeName="stop-color" values="#8b5cf6;#3b82f6;#8b5cf6" dur="3s" repeatCount="indefinite"/>
      </stop>
    </linearGradient>
  </defs>
  <path d="M4.5 16.5c-1.5 1.26-2 5-2 5s3.74-.5 5-2c.71-.84.7-2.13-.09-2.91a2.18 2.18 0 0 0-2.91-.09z"/>
  <path d="m12 15-3-3a22 22 0 0 1 2-3.95A12.88 12.88 0 0 1 22 2c0 2.72-.78 7.5-6 11a22.35 22.35 0 0 1-4 2z">
    <animateTransform attributeName="transform" type="translate" values="0,0; -2,-2; 0,0" dur="2s" repeatCount="indefinite"/>
    <animate attributeName="opacity" values="1;0.7;1" dur="2s" repeatCount="indefinite"/>
  </path>
  <path d="M9 12H4s.55-3.03 2-4c1.62-1.08 5 0 5 0"/>
  <path d="M12 15v5s3.03-.55 4-2c1.08-1.62 0-5 0-5"/>
</svg>
