<svg viewBox="0 0 24 24" width="24" height="24" fill="url(#grad-filled-arctic)" stroke="none" xmlns="http://www.w3.org/2000/svg">
  <defs>
    <linearGradient id="grad-filled-arctic" x1="0%" y1="0%" x2="100%" y2="100%">
      <stop offset="0%" style="stop-color:#3b82f6;stop-opacity:1"/>
      <stop offset="100%" style="stop-color:#8b5cf6;stop-opacity:1"/>
    </linearGradient>
  </defs>
  <path <animate attributeName="opacity" values="1;0.6;1" dur="2s" repeatCount="indefinite"/> d="M12 2l2 4 4 2-4 2-2 4-2-4-4-2 4-2 2-4z"/>
  <path <animate attributeName="opacity" values="1;0.6;1" dur="2s" repeatCount="indefinite"/> d="M6 14l1 2 2 1-2 1-1 2-1-2-2-1 2-1 1-2z"/>
  <path <animate attributeName="opacity" values="1;0.6;1" dur="2s" repeatCount="indefinite"/> d="M18 14l1 2 2 1-2 1-1 2-1-2-2-1 2-1 1-2z"/>
  <circle <animate attributeName="opacity" values="0.6;1;0.6" dur="2s" repeatCount="indefinite"/> cx="12" cy="12" r="1.5"/>
</svg>
