<svg viewBox="0 0 24 24" width="24" height="24" fill="url(#grad-filled-fireflies-ai)" stroke="none" xmlns="http://www.w3.org/2000/svg">
  <defs>
    <linearGradient id="grad-filled-fireflies-ai" x1="0%" y1="0%" x2="100%" y2="100%">
      <stop offset="0%" style="stop-color:#3b82f6;stop-opacity:1"/>
      <stop offset="100%" style="stop-color:#8b5cf6;stop-opacity:1"/>
    </linearGradient>
  </defs>
  <style>
    @keyframes iconPulse { 0%, 100% { opacity: 1; } 50% { opacity: 0.6; } }
    path, circle, rect, ellipse, polygon { animation: iconPulse 2s ease-in-out infinite; }
  </style>
  <path d="M12 2l1 3 3 1-3 1-1 3-1-3-3-1 3-1 1-3z"/>
  <path d="M6 12l0.5 1.5 1.5 0.5-1.5 0.5L6 16l-0.5-1.5L4 14l1.5-0.5L6 12z"/>
  <path d="M18 12l0.5 1.5 1.5 0.5-1.5 0.5L18 16l-0.5-1.5L16 14l1.5-0.5L18 12z"/>
  <circle cx="12" cy="19" r="3"/>
</svg>
