<svg viewBox="0 0 24 24" width="24" height="24" fill="none" xmlns="http://www.w3.org/2000/svg">
  <defs>
    <linearGradient id="grad-fireworks-ai" x1="0%" y1="0%" x2="100%" y2="100%">
      <stop offset="0%" style="stop-color:#f97316;stop-opacity:1"/>
      <stop offset="100%" style="stop-color:#ef4444;stop-opacity:1"/>
    </linearGradient>
  </defs>
  <g stroke="url(#grad-fireworks-ai)" stroke-width="1.5" stroke-linecap="round" stroke-linejoin="round" fill="none">
    <path d="M12 2l1 4 4 1-4 1-1 4-1-4-4-1 4-1 1-4z"/><path d="M18 14l.5 2 2 .5-2 .5-.5 2-.5-2-2-.5 2-.5.5-2z"/><path d="M6 16l.5 1.5 1.5.5-1.5.5-.5 1.5-.5-1.5-1.5-.5 1.5-.5.5-1.5z"/>
  </g>
</svg>
