<svg viewBox="0 0 24 24" width="24" height="24" fill="none" xmlns="http://www.w3.org/2000/svg">
  <defs>
    <linearGradient id="grad-fine-tuning" x1="0%" y1="0%" x2="100%" y2="100%">
      <stop offset="0%" style="stop-color:#3b82f6;stop-opacity:1"/>
      <stop offset="100%" style="stop-color:#06b6d4;stop-opacity:1"/>
    </linearGradient>
  </defs>
  <path <animate attributeName="opacity" values="1;0.6;1" dur="2s" repeatCount="indefinite" d="M3 8h4m0 0a2 2 0 1 0 4 0m-4 0a2 2 0 1 1 4 0m4 0h6" stroke="url(#grad-fine-tuning)" stroke-width="1.5" stroke-linecap="round"/>
  <path <animate attributeName="opacity" values="1;0.6;1" dur="2s" repeatCount="indefinite" d="M3 16h10m0 0a2 2 0 1 0 4 0m-4 0a2 2 0 1 1 4 0m2 0h2" stroke="url(#grad-fine-tuning)" stroke-width="1.5" stroke-linecap="round"/>
  <path <animate attributeName="opacity" values="1;0.6;1" dur="2s" repeatCount="indefinite" d="M9 12a2 2 0 1 0 4 0m-4 0a2 2 0 1 1 4 0m-10 0h7m6 0h6" stroke="url(#grad-fine-tuning)" stroke-width="1.5" stroke-linecap="round"/>
</svg>
