<svg viewBox="0 0 24 24" width="24" height="24" fill="none" xmlns="http://www.w3.org/2000/svg">
  <defs>
    <linearGradient id="grad-spatial-computing" x1="0%" y1="0%" x2="100%" y2="100%">
      <stop offset="0%" style="stop-color:#3b82f6;stop-opacity:1"/>
      <stop offset="100%" style="stop-color:#06b6d4;stop-opacity:1"/>
    </linearGradient>
  </defs>
  <path <animate attributeName="opacity" values="1;0.6;1" dur="2s" repeatCount="indefinite" d="M3 8h18a1 1 0 0 1 1 1v6a1 1 0 0 1-1 1H3a1 1 0 0 1-1-1V9a1 1 0 0 1 1-1z" stroke="url(#grad-spatial-computing)" stroke-width="1.5" stroke-linecap="round" stroke-linejoin="round"/>
  <circle <animate attributeName="opacity" values="0.5;1;0.5" dur="1.5s" repeatCount="indefinite" cx="8" cy="12" r="2.5" stroke="url(#grad-spatial-computing)" stroke-width="1.5"/>
  <circle <animate attributeName="opacity" values="0.5;1;0.5" dur="1.5s" repeatCount="indefinite" cx="16" cy="12" r="2.5" stroke="url(#grad-spatial-computing)" stroke-width="1.5"/>
  <path <animate attributeName="opacity" values="1;0.6;1" dur="2s" repeatCount="indefinite" d="M2 10l-1 2 1 2M22 10l1 2-1 2" stroke="url(#grad-spatial-computing)" stroke-width="1.5" stroke-linecap="round" stroke-linejoin="round"/>
  <line x1="11" y1="8" x2="13" y2="8" stroke="url(#grad-spatial-computing)" stroke-width="1.5" stroke-linecap="round"/>
</svg>
