<svg viewBox="0 0 24 24" width="24" height="24" fill="none" xmlns="http://www.w3.org/2000/svg">
  <defs>
    <linearGradient id="grad-vision-pro" x1="0%" y1="0%" x2="100%" y2="100%">
      <stop offset="0%" style="stop-color:#3b82f6;stop-opacity:1"/>
      <stop offset="100%" style="stop-color:#06b6d4;stop-opacity:1"/>
    </linearGradient>
  </defs>
  <path <animate attributeName="opacity" values="1;0.6;1" dur="2s" repeatCount="indefinite" d="M2 10c0-2 1-4 3-5s5-1 7-1 5 0 7 1 3 3 3 5v4c0 2-1 4-3 5s-5 1-7 1-5 0-7-1-3-3-3-5v-4z" stroke="url(#grad-vision-pro)" stroke-width="1.5" stroke-linecap="round" stroke-linejoin="round"/>
  <ellipse cx="8" cy="12" rx="3" ry="3.5" stroke="url(#grad-vision-pro)" stroke-width="1.5"/>
  <ellipse cx="16" cy="12" rx="3" ry="3.5" stroke="url(#grad-vision-pro)" stroke-width="1.5"/>
  <path <animate attributeName="opacity" values="1;0.6;1" dur="2s" repeatCount="indefinite" d="M2 11h2M20 11h2" stroke="url(#grad-vision-pro)" stroke-width="1.5" stroke-linecap="round"/>
  <circle <animate attributeName="opacity" values="0.5;1;0.5" dur="1.5s" repeatCount="indefinite" cx="8" cy="12" r="1" fill="currentColor"/>
  <circle <animate attributeName="opacity" values="0.5;1;0.5" dur="1.5s" repeatCount="indefinite" cx="16" cy="12" r="1" fill="currentColor"/>
</svg>
