<svg viewBox="0 0 24 24" width="24" height="24" fill="none" stroke="url(#grad-butterfly)" stroke-width="1.5" stroke-linecap="round" stroke-linejoin="round" xmlns="http://www.w3.org/2000/svg">
  <defs>
    <linearGradient id="grad-butterfly" x1="0%" y1="0%" x2="100%" y2="100%">
      <stop offset="0%" style="stop-color:#6366f1;stop-opacity:1"/>
      <stop offset="100%" style="stop-color:#8b5cf6;stop-opacity:1"/>
    </linearGradient>
  </defs>
  <path <animate attributeName="opacity" values="1;0.6;1" dur="2s" repeatCount="indefinite" d="M12 18V6a4 4 0 0 0-4-4 4 4 0 0 0-4 4 4 4 0 0 0 4 4h4Z"/>
  <path <animate attributeName="opacity" values="1;0.6;1" dur="2s" repeatCount="indefinite" d="M12 18a4 4 0 0 0 4 4 4 4 0 0 0 4-4 4 4 0 0 0-4-4h-4Z"/>
  <path <animate attributeName="opacity" values="1;0.6;1" dur="2s" repeatCount="indefinite" d="M12 6h4a4 4 0 0 1 4 4 4 4 0 0 1-4 4h-4Z"/>
  <path <animate attributeName="opacity" values="1;0.6;1" dur="2s" repeatCount="indefinite" d="M12 18H8a4 4 0 0 1-4-4 4 4 0 0 1 4-4h4Z"/>
  <circle <animate attributeName="opacity" values="0.5;1;0.5" dur="1.5s" repeatCount="indefinite" cx="12" cy="12" r="1"/>
</svg>
