<svg viewBox="0 0 24 24" width="24" height="24" fill="none" stroke="currentColor" stroke-width="1.5" stroke-linecap="round" stroke-linejoin="round" xmlns="http://www.w3.org/2000/svg">
  <path d="M9 18V7a2 2 0 0 1 4 0v11" stroke="currentColor" stroke-width="1.5" stroke-linecap="round" stroke-linejoin="round" opacity="0.3"/>
  <path d="M13 16V5a2 2 0 0 1 4 0v11" stroke="currentColor" stroke-width="1.5" stroke-linecap="round" stroke-linejoin="round"/>
  <path d="M17 16v-4a2 2 0 0 1 4 0v6a5 5 0 0 1-5 5h-5a5 5 0 0 1-5-5v-2" stroke="currentColor" stroke-width="1.5" stroke-linecap="round" stroke-linejoin="round" opacity="0.3"/>
  <path d="M5 14V9a2 2 0 0 1 4 0v5" stroke="currentColor" stroke-width="1.5" stroke-linecap="round" stroke-linejoin="round"/>
  <path d="M2 4l2 2 2-2" stroke="currentColor" stroke-width="1.5" stroke-linecap="round" stroke-linejoin="round" opacity="0.3"/>
</svg>
