<svg viewBox="0 0 24 24" width="24" height="24" fill="none" stroke="currentColor" stroke-width="1.5" stroke-linecap="round" stroke-linejoin="round" xmlns="http://www.w3.org/2000/svg">
  <style>
    path:nth-child(odd) { opacity: 0.3; }
    rect:nth-child(odd) { opacity: 0.3; }
    circle:nth-child(odd) { opacity: 0.3; }
  </style>
  <path <animate attributeName="opacity" values="1;0.6;1" dur="2s" repeatCount="indefinite"/> d="M2 10c0-2 1-4 3-5s5-1 7-1 5 0 7 1 3 3 3 5v4c0 2-1 4-3 5s-5 1-7 1-5 0-7-1-3-3-3-5v-4z" stroke="currentColor" stroke-width="1.5" stroke-linecap="round" stroke-linejoin="round"/>
  <ellipse <animate attributeName="opacity" values="1;0.6;1" dur="2s" repeatCount="indefinite"/> cx="8" cy="12" rx="3" ry="3.5" stroke="currentColor" stroke-width="1.5"/>
  <ellipse <animate attributeName="opacity" values="1;0.6;1" dur="2s" repeatCount="indefinite"/> cx="16" cy="12" rx="3" ry="3.5" stroke="currentColor" stroke-width="1.5"/>
  <path <animate attributeName="opacity" values="1;0.6;1" dur="2s" repeatCount="indefinite"/> d="M2 11h2M20 11h2" stroke="currentColor" stroke-width="1.5" stroke-linecap="round"/>
  <circle <animate attributeName="opacity" values="1;0.6;1" dur="2s" repeatCount="indefinite"/> cx="8" cy="12" r="1" fill="currentColor"/>
  <circle <animate attributeName="opacity" values="1;0.6;1" dur="2s" repeatCount="indefinite"/> cx="16" cy="12" r="1" fill="currentColor"/>
</svg>
