<svg viewBox="0 0 24 24" width="24" height="24" fill="none" stroke="currentColor" stroke-width="1" stroke-linecap="round" stroke-linejoin="round" xmlns="http://www.w3.org/2000/svg">
  <style>
    @keyframes iconPulse { 0%, 100% { opacity: 1; } 50% { opacity: 0.6; } }
    path, circle, rect, ellipse, polygon { animation: iconPulse 2s ease-in-out infinite; }
  </style>
  <path d="M12 18V6a4 4 0 0 0-4-4 4 4 0 0 0-4 4 4 4 0 0 0 4 4h4Z"/>
  <path d="M12 18a4 4 0 0 0 4 4 4 4 0 0 0 4-4 4 4 0 0 0-4-4h-4Z"/>
  <path d="M12 6h4a4 4 0 0 1 4 4 4 4 0 0 1-4 4h-4Z"/>
  <path d="M12 18H8a4 4 0 0 1-4-4 4 4 0 0 1 4-4h4Z"/>
  <circle cx="12" cy="12" r="1"/>
</svg>
