<svg viewBox="0 0 24 24" width="24" height="24" fill="none" stroke="currentColor" stroke-width="1" stroke-linecap="round" stroke-linejoin="round" xmlns="http://www.w3.org/2000/svg">
  <style>
    @keyframes iconPulse { 0%, 100% { opacity: 1; } 50% { opacity: 0.6; } }
    path, circle, rect, ellipse, polygon { animation: iconPulse 2s ease-in-out infinite; }
  </style>
  <path d="M12 16c-4 0-8-1-8-4 0-2 2-4 5-5 1-.5 2-.8 3-.8s2 .3 3 .8c3 1 5 3 5 5 0 3-4 4-8 4Z"/>
  <path d="M4 12c0 2.5 3 4.5 8 4.5s8-2 8-4.5"/>
  <path d="M6 14v4"/>
  <path d="M9 15v4"/>
  <path d="M15 15v4"/>
  <path d="M18 14v4"/>
  <circle cx="12" cy="9" r="2"/>
</svg>
