<svg viewBox="0 0 24 24" width="24" height="24" fill="none" stroke="url(#grad-ticket)" stroke-width="1.5" stroke-linecap="round" stroke-linejoin="round" xmlns="http://www.w3.org/2000/svg">
  <defs>
    <linearGradient id="grad-ticket" x1="0%" y1="0%" x2="100%" y2="100%">
      <stop offset="0%" style="stop-color:#3b82f6;stop-opacity:1"/>
      <stop offset="100%" style="stop-color:#8b5cf6;stop-opacity:1"/>
    </linearGradient>
  </defs>
  <path d="M2 9a3 3 0 0 1 0 6v2a2 2 0 0 0 2 2h16a2 2 0 0 0 2-2v-2a3 3 0 0 1 0-6V7a2 2 0 0 0-2-2H4a2 2 0 0 0-2 2Z"/>
  <path d="M13 5v2"/>
  <path d="M13 17v2"/>
  <path d="M13 11v2"/>
</svg>
