<svg viewBox="0 0 24 24" width="24" height="24" fill="none" stroke="currentColor" stroke-width="1.5" stroke-linecap="round" stroke-linejoin="round" xmlns="http://www.w3.org/2000/svg">
  <style>
    path:nth-child(odd) { opacity: 0.3; }
    rect:nth-child(odd) { opacity: 0.3; }
    circle:nth-child(odd) { opacity: 0.3; }
  </style>
  <style>
    @keyframes iconPulse { 0%, 100% { opacity: 1; } 50% { opacity: 0.6; } }
    path, circle, rect, ellipse, polygon { animation: iconPulse 2s ease-in-out infinite; }
  </style>
  <path d="M12 3c-3 0-5 2-6 4s-1 5 0 7 3 3 6 3 5-1 6-3 1-5 0-7-3-4-6-4z" stroke="currentColor" stroke-width="1.5"/>
  <circle cx="9" cy="11" r="1" fill="currentColor"/>
  <circle cx="15" cy="11" r="1" fill="currentColor"/>
  <path d="M10 14c.5.5 1.5.5 2 .5s1.5 0 2-.5" stroke="currentColor" stroke-width="1.5" stroke-linecap="round"/>
  <path d="M8 5l-2-3M16 5l2-3" stroke="currentColor" stroke-width="1.5" stroke-linecap="round"/>
  <path d="M7 18l-2 3M17 18l2 3" stroke="currentColor" stroke-width="1.5" stroke-linecap="round"/>
</svg>
