<svg viewBox="0 0 24 24" width="24" height="24" fill="none" stroke="url(#grad-cactus)" stroke-width="1.5" stroke-linecap="round" stroke-linejoin="round" xmlns="http://www.w3.org/2000/svg">
  <defs>
    <linearGradient id="grad-cactus" x1="0%" y1="0%" x2="100%" y2="100%">
      <stop offset="0%" style="stop-color:#6366f1;stop-opacity:1"/>
      <stop offset="100%" style="stop-color:#8b5cf6;stop-opacity:1"/>
    </linearGradient>
  </defs>
  <path <animate attributeName="opacity" values="1;0.6;1" dur="2s" repeatCount="indefinite" d="M13 8c0-2.76-2.46-5-5.5-5S2 5.24 2 8h11Z"/>
  <path <animate attributeName="opacity" values="1;0.6;1" dur="2s" repeatCount="indefinite" d="M13 7.14A5.82 5.82 0 0 1 16.5 6c3.04 0 5.5 2.24 5.5 5h-9Z"/>
  <path <animate attributeName="opacity" values="1;0.6;1" dur="2s" repeatCount="indefinite" d="M5.89 9.71c-2.15 2.15-2.3 5.47-.35 7.43l4.24-4.25.7-.7.71-.71 2.12-2.12c-1.95-1.96-5.27-1.8-7.42.35Z"/>
  <path <animate attributeName="opacity" values="1;0.6;1" dur="2s" repeatCount="indefinite" d="M11 15.5c.5 2.5-.17 4.5-1 6.5h4c2-1 1.5-4 1-6.5"/>
</svg>
