<svg viewBox="0 0 24 24" width="24" height="24" fill="none" stroke="currentColor" stroke-width="1.5" stroke-linecap="round" stroke-linejoin="round" xmlns="http://www.w3.org/2000/svg">
  <style>
    path:nth-child(odd) { opacity: 0.3; }
    rect:nth-child(odd) { opacity: 0.3; }
    circle:nth-child(odd) { opacity: 0.3; }
  </style>
  <path <animate attributeName="opacity" values="1;0.6;1" dur="2s" repeatCount="indefinite"/> d="M12 18V6a4 4 0 0 0-4-4 4 4 0 0 0-4 4 4 4 0 0 0 4 4h4Z"/>
  <path <animate attributeName="opacity" values="1;0.6;1" dur="2s" repeatCount="indefinite"/> d="M12 18a4 4 0 0 0 4 4 4 4 0 0 0 4-4 4 4 0 0 0-4-4h-4Z"/>
  <path <animate attributeName="opacity" values="1;0.6;1" dur="2s" repeatCount="indefinite"/> d="M12 6h4a4 4 0 0 1 4 4 4 4 0 0 1-4 4h-4Z"/>
  <path <animate attributeName="opacity" values="1;0.6;1" dur="2s" repeatCount="indefinite"/> d="M12 18H8a4 4 0 0 1-4-4 4 4 0 0 1 4-4h4Z"/>
  <circle <animate attributeName="opacity" values="1;0.6;1" dur="2s" repeatCount="indefinite"/> cx="12" cy="12" r="1"/>
</svg>
