<svg viewBox="0 0 24 24" width="24" height="24" fill="url(#grad-filled-rabbit-line)" stroke="none" xmlns="http://www.w3.org/2000/svg">
  <defs>
    <linearGradient id="grad-filled-rabbit-line" x1="0%" y1="0%" x2="100%" y2="100%">
      <stop offset="0%" style="stop-color:#10b981;stop-opacity:1"/>
      <stop offset="100%" style="stop-color:#06b6d4;stop-opacity:1"/>
    </linearGradient>
  </defs>
  <path <animate attributeName="opacity" values="1;0.6;1" dur="2s" repeatCount="indefinite"/> d="M12 3c-3 0-5 2-6 4s-1 5 0 7 3 3 6 3 5-1 6-3 1-5 0-7-3-4-6-4z" stroke="currentColor" stroke-width="1.5"/>
  <circle <animate attributeName="opacity" values="0.6;1;0.6" dur="2s" repeatCount="indefinite"/> cx="9" cy="11" r="1" fill="currentColor"/>
  <circle <animate attributeName="opacity" values="0.6;1;0.6" dur="2s" repeatCount="indefinite"/> cx="15" cy="11" r="1" fill="currentColor"/>
  <path <animate attributeName="opacity" values="1;0.6;1" dur="2s" repeatCount="indefinite"/> d="M10 14c.5.5 1.5.5 2 .5s1.5 0 2-.5" stroke="currentColor" stroke-width="1.5" stroke-linecap="round"/>
  <path <animate attributeName="opacity" values="1;0.6;1" dur="2s" repeatCount="indefinite"/> d="M8 5l-2-3M16 5l2-3" stroke="currentColor" stroke-width="1.5" stroke-linecap="round"/>
  <path <animate attributeName="opacity" values="1;0.6;1" dur="2s" repeatCount="indefinite"/> d="M7 18l-2 3M17 18l2 3" stroke="currentColor" stroke-width="1.5" stroke-linecap="round"/>
</svg>
